%TF.GenerationSoftware,KiCad,Pcbnew,9.0.0*%
%TF.CreationDate,2025-04-21T22:06:35+02:00*%
%TF.ProjectId,RIAA_preamp,52494141-5f70-4726-9561-6d702e6b6963,rev?*%
%TF.SameCoordinates,Original*%
%TF.FileFunction,Soldermask,Top*%
%TF.FilePolarity,Negative*%
%FSLAX46Y46*%
G04 Gerber Fmt 4.6, Leading zero omitted, Abs format (unit mm)*
G04 Created by KiCad (PCBNEW 9.0.0) date 2025-04-21 22:06:35*
%MOMM*%
%LPD*%
G01*
G04 APERTURE LIST*
G04 Aperture macros list*
%AMRoundRect*
0 Rectangle with rounded corners*
0 $1 Rounding radius*
0 $2 $3 $4 $5 $6 $7 $8 $9 X,Y pos of 4 corners*
0 Add a 4 corners polygon primitive as box body*
4,1,4,$2,$3,$4,$5,$6,$7,$8,$9,$2,$3,0*
0 Add four circle primitives for the rounded corners*
1,1,$1+$1,$2,$3*
1,1,$1+$1,$4,$5*
1,1,$1+$1,$6,$7*
1,1,$1+$1,$8,$9*
0 Add four rect primitives between the rounded corners*
20,1,$1+$1,$2,$3,$4,$5,0*
20,1,$1+$1,$4,$5,$6,$7,0*
20,1,$1+$1,$6,$7,$8,$9,0*
20,1,$1+$1,$8,$9,$2,$3,0*%
G04 Aperture macros list end*
%ADD10C,1.270000*%
%ADD11RoundRect,0.250000X1.125000X-1.125000X1.125000X1.125000X-1.125000X1.125000X-1.125000X-1.125000X0*%
%ADD12C,2.750000*%
%ADD13O,1.700000X1.700000*%
%ADD14R,1.700000X1.700000*%
%ADD15RoundRect,0.200000X0.275000X-0.200000X0.275000X0.200000X-0.275000X0.200000X-0.275000X-0.200000X0*%
%ADD16RoundRect,0.250000X0.250000X0.475000X-0.250000X0.475000X-0.250000X-0.475000X0.250000X-0.475000X0*%
%ADD17RoundRect,0.200000X-0.275000X0.200000X-0.275000X-0.200000X0.275000X-0.200000X0.275000X0.200000X0*%
%ADD18C,5.600000*%
%ADD19RoundRect,0.150000X-0.150000X0.825000X-0.150000X-0.825000X0.150000X-0.825000X0.150000X0.825000X0*%
%ADD20RoundRect,0.225000X0.250000X-0.225000X0.250000X0.225000X-0.250000X0.225000X-0.250000X-0.225000X0*%
%ADD21RoundRect,0.250000X-0.250000X-0.475000X0.250000X-0.475000X0.250000X0.475000X-0.250000X0.475000X0*%
%ADD22RoundRect,0.200000X-0.200000X-0.275000X0.200000X-0.275000X0.200000X0.275000X-0.200000X0.275000X0*%
%ADD23RoundRect,0.225000X-0.225000X-0.250000X0.225000X-0.250000X0.225000X0.250000X-0.225000X0.250000X0*%
%ADD24RoundRect,0.112500X-0.112500X0.187500X-0.112500X-0.187500X0.112500X-0.187500X0.112500X0.187500X0*%
%ADD25RoundRect,0.225000X-0.250000X0.225000X-0.250000X-0.225000X0.250000X-0.225000X0.250000X0.225000X0*%
%ADD26RoundRect,0.250000X0.475000X-0.250000X0.475000X0.250000X-0.475000X0.250000X-0.475000X-0.250000X0*%
%ADD27RoundRect,0.225000X0.225000X0.250000X-0.225000X0.250000X-0.225000X-0.250000X0.225000X-0.250000X0*%
%ADD28RoundRect,0.250000X-0.475000X0.250000X-0.475000X-0.250000X0.475000X-0.250000X0.475000X0.250000X0*%
%ADD29RoundRect,0.250000X-1.000000X1.950000X-1.000000X-1.950000X1.000000X-1.950000X1.000000X1.950000X0*%
%ADD30RoundRect,0.200000X0.200000X0.275000X-0.200000X0.275000X-0.200000X-0.275000X0.200000X-0.275000X0*%
%ADD31C,1.800000*%
%ADD32R,1.800000X1.800000*%
%ADD33RoundRect,0.112500X-0.187500X-0.112500X0.187500X-0.112500X0.187500X0.112500X-0.187500X0.112500X0*%
%ADD34RoundRect,0.150000X-0.825000X-0.150000X0.825000X-0.150000X0.825000X0.150000X-0.825000X0.150000X0*%
%ADD35RoundRect,0.250000X0.850000X0.350000X-0.850000X0.350000X-0.850000X-0.350000X0.850000X-0.350000X0*%
%ADD36RoundRect,0.249997X2.950003X2.650003X-2.950003X2.650003X-2.950003X-2.650003X2.950003X-2.650003X0*%
%ADD37RoundRect,0.200000X-0.300000X-0.200000X0.300000X-0.200000X0.300000X0.200000X-0.300000X0.200000X0*%
%ADD38C,3.000000*%
%ADD39RoundRect,0.112500X0.187500X0.112500X-0.187500X0.112500X-0.187500X-0.112500X0.187500X-0.112500X0*%
%ADD40RoundRect,0.250000X-0.850000X-0.350000X0.850000X-0.350000X0.850000X0.350000X-0.850000X0.350000X0*%
%ADD41RoundRect,0.249997X-2.950003X-2.650003X2.950003X-2.650003X2.950003X2.650003X-2.950003X2.650003X0*%
G04 APERTURE END LIST*
D10*
%TO.C,F1*%
X97370000Y-72594000D03*
X92270000Y-70994000D03*
%TD*%
D11*
%TO.C,J4*%
X79509000Y-82782000D03*
D12*
X79509000Y-77382000D03*
%TD*%
D13*
%TO.C,J3*%
X141645000Y-83100000D03*
X144185000Y-83100000D03*
D14*
X146725000Y-83100000D03*
%TD*%
D15*
%TO.C,R28*%
X145670500Y-69382000D03*
X145670500Y-71032000D03*
%TD*%
D16*
%TO.C,C58*%
X159050000Y-70085000D03*
X160950000Y-70085000D03*
%TD*%
D17*
%TO.C,R9*%
X164100000Y-52210000D03*
X164100000Y-50560000D03*
%TD*%
D18*
%TO.C,H2*%
X106500000Y-81700000D03*
%TD*%
D19*
%TO.C,U1*%
X161305000Y-67760000D03*
X160035000Y-67760000D03*
X158765000Y-67760000D03*
X157495000Y-67760000D03*
X157495000Y-62810000D03*
X158765000Y-62810000D03*
X160035000Y-62810000D03*
X161305000Y-62810000D03*
%TD*%
D20*
%TO.C,C74*%
X152900000Y-55135000D03*
X152900000Y-53585000D03*
%TD*%
D21*
%TO.C,C33*%
X162550000Y-70085000D03*
X164450000Y-70085000D03*
%TD*%
D22*
%TO.C,R14*%
X133250000Y-65800000D03*
X134900000Y-65800000D03*
%TD*%
D21*
%TO.C,C23*%
X160650000Y-54335000D03*
X162550000Y-54335000D03*
%TD*%
D16*
%TO.C,C28*%
X144950000Y-67500000D03*
X143050000Y-67500000D03*
%TD*%
D23*
%TO.C,C79*%
X120100000Y-77418334D03*
X121650000Y-77418334D03*
%TD*%
D21*
%TO.C,C21*%
X160650000Y-52315000D03*
X162550000Y-52315000D03*
%TD*%
D23*
%TO.C,C11*%
X157525000Y-55110000D03*
X159075000Y-55110000D03*
%TD*%
%TO.C,C87*%
X120100000Y-80531667D03*
X121650000Y-80531667D03*
%TD*%
D17*
%TO.C,R19*%
X164500000Y-66610000D03*
X164500000Y-68260000D03*
%TD*%
D24*
%TO.C,D2*%
X130900000Y-46950000D03*
X130900000Y-49050000D03*
%TD*%
D25*
%TO.C,C93*%
X148211666Y-50485000D03*
X148211666Y-52035000D03*
%TD*%
D15*
%TO.C,R6*%
X120140000Y-69525000D03*
X120140000Y-67875000D03*
%TD*%
D26*
%TO.C,C44*%
X146314700Y-42400000D03*
X146314700Y-40500000D03*
%TD*%
%TO.C,C42*%
X142125000Y-42400000D03*
X142125000Y-40500000D03*
%TD*%
D27*
%TO.C,C73*%
X124750000Y-77400000D03*
X123200000Y-77400000D03*
%TD*%
D21*
%TO.C,C38*%
X160650000Y-60395000D03*
X162550000Y-60395000D03*
%TD*%
D28*
%TO.C,C52*%
X154100000Y-58785000D03*
X154100000Y-60685000D03*
%TD*%
D20*
%TO.C,C76*%
X156013333Y-55135000D03*
X156013333Y-53585000D03*
%TD*%
%TO.C,C95*%
X151343333Y-55135000D03*
X151343333Y-53585000D03*
%TD*%
D29*
%TO.C,C37*%
X125000000Y-38500000D03*
X125000000Y-45900000D03*
%TD*%
D23*
%TO.C,C88*%
X120100000Y-82088334D03*
X121650000Y-82088334D03*
%TD*%
D21*
%TO.C,C51*%
X128400000Y-76200000D03*
X130300000Y-76200000D03*
%TD*%
D20*
%TO.C,C1*%
X150700000Y-58710000D03*
X150700000Y-57160000D03*
%TD*%
D25*
%TO.C,C92*%
X149768333Y-50485000D03*
X149768333Y-52035000D03*
%TD*%
D23*
%TO.C,C77*%
X120100000Y-75861667D03*
X121650000Y-75861667D03*
%TD*%
D26*
%TO.C,C43*%
X131075000Y-56350000D03*
X131075000Y-54450000D03*
%TD*%
D29*
%TO.C,C4*%
X115700000Y-51400000D03*
X115700000Y-58800000D03*
%TD*%
D23*
%TO.C,C7*%
X157525000Y-52060000D03*
X159075000Y-52060000D03*
%TD*%
D30*
%TO.C,R11*%
X121725000Y-74300000D03*
X120075000Y-74300000D03*
%TD*%
D21*
%TO.C,C30*%
X140950000Y-74600000D03*
X142850000Y-74600000D03*
%TD*%
D31*
%TO.C,RV1*%
X87648000Y-72494000D03*
X80148000Y-71094000D03*
%TD*%
D32*
%TO.C,D5*%
X156375000Y-40600000D03*
D31*
X153835000Y-40600000D03*
%TD*%
D15*
%TO.C,R26*%
X139400000Y-75925000D03*
X139400000Y-74275000D03*
%TD*%
D18*
%TO.C,H1*%
X106500000Y-39450000D03*
%TD*%
D20*
%TO.C,C6*%
X121675000Y-72775000D03*
X121675000Y-71225000D03*
%TD*%
D26*
%TO.C,C46*%
X144219850Y-42400000D03*
X144219850Y-40500000D03*
%TD*%
D33*
%TO.C,D4*%
X136725000Y-38050000D03*
X138825000Y-38050000D03*
%TD*%
D27*
%TO.C,C91*%
X124750000Y-75843334D03*
X123200000Y-75843334D03*
%TD*%
D26*
%TO.C,C25*%
X104345000Y-53567000D03*
X104345000Y-51667000D03*
%TD*%
D20*
%TO.C,C94*%
X149786666Y-55135000D03*
X149786666Y-53585000D03*
%TD*%
D30*
%TO.C,R5*%
X152425000Y-60735000D03*
X150775000Y-60735000D03*
%TD*%
D24*
%TO.C,D3*%
X137400000Y-54300000D03*
X137400000Y-56400000D03*
%TD*%
D22*
%TO.C,R16*%
X136225000Y-65800000D03*
X137875000Y-65800000D03*
%TD*%
D21*
%TO.C,C27*%
X160650000Y-56355000D03*
X162550000Y-56355000D03*
%TD*%
D15*
%TO.C,R33*%
X106377000Y-53188000D03*
X106377000Y-51538000D03*
%TD*%
D27*
%TO.C,C75*%
X124750000Y-74286667D03*
X123200000Y-74286667D03*
%TD*%
D20*
%TO.C,C96*%
X154456666Y-55135000D03*
X154456666Y-53585000D03*
%TD*%
D18*
%TO.C,H4*%
X164500000Y-81700000D03*
%TD*%
D30*
%TO.C,R32*%
X151050000Y-42115000D03*
X149400000Y-42115000D03*
%TD*%
D25*
%TO.C,C78*%
X154438333Y-50485000D03*
X154438333Y-52035000D03*
%TD*%
D20*
%TO.C,C12*%
X126250000Y-72775000D03*
X126250000Y-71225000D03*
%TD*%
%TO.C,C8*%
X123200000Y-72775000D03*
X123200000Y-71225000D03*
%TD*%
D34*
%TO.C,U5*%
X132425000Y-68995000D03*
X132425000Y-70265000D03*
X132425000Y-71535000D03*
X132425000Y-72805000D03*
X137375000Y-72805000D03*
X137375000Y-71535000D03*
X137375000Y-70265000D03*
X137375000Y-68995000D03*
%TD*%
D35*
%TO.C,U4*%
X139700000Y-44905000D03*
D36*
X133400000Y-42625000D03*
D35*
X139700000Y-40345000D03*
%TD*%
D15*
%TO.C,R30*%
X147271000Y-71032000D03*
X147271000Y-69382000D03*
%TD*%
D22*
%TO.C,R29*%
X154375000Y-69785000D03*
X156025000Y-69785000D03*
%TD*%
D17*
%TO.C,R17*%
X164500000Y-63635000D03*
X164500000Y-65285000D03*
%TD*%
D15*
%TO.C,R12*%
X120150000Y-72850000D03*
X120150000Y-71200000D03*
%TD*%
D22*
%TO.C,R36*%
X159375000Y-75985000D03*
X161025000Y-75985000D03*
%TD*%
D27*
%TO.C,C5*%
X128325000Y-79600000D03*
X126775000Y-79600000D03*
%TD*%
D26*
%TO.C,C17*%
X121930000Y-69650000D03*
X121930000Y-67750000D03*
%TD*%
D18*
%TO.C,H3*%
X164500000Y-39700000D03*
%TD*%
D17*
%TO.C,R27*%
X157500000Y-69760000D03*
X157500000Y-71410000D03*
%TD*%
D23*
%TO.C,C13*%
X157525000Y-56635000D03*
X159075000Y-56635000D03*
%TD*%
D26*
%TO.C,C39*%
X162800000Y-75335000D03*
X162800000Y-73435000D03*
%TD*%
D28*
%TO.C,C50*%
X156200000Y-58785000D03*
X156200000Y-60685000D03*
%TD*%
D26*
%TO.C,C19*%
X125970000Y-69650000D03*
X125970000Y-67750000D03*
%TD*%
D37*
%TO.C,D1*%
X103825000Y-46630000D03*
X103825000Y-49170000D03*
X109975000Y-49170000D03*
X109975000Y-46630000D03*
%TD*%
D26*
%TO.C,C47*%
X135300000Y-56350000D03*
X135300000Y-54450000D03*
%TD*%
%TO.C,C45*%
X133200000Y-56350000D03*
X133200000Y-54450000D03*
%TD*%
D23*
%TO.C,C9*%
X157525000Y-53585000D03*
X159075000Y-53585000D03*
%TD*%
D26*
%TO.C,C20*%
X127990000Y-69650000D03*
X127990000Y-67750000D03*
%TD*%
D28*
%TO.C,C54*%
X158200000Y-58785000D03*
X158200000Y-60685000D03*
%TD*%
D29*
%TO.C,C3*%
X125000000Y-51400000D03*
X125000000Y-58800000D03*
%TD*%
D14*
%TO.C,J2*%
X134625000Y-83000000D03*
D13*
X137165000Y-83000000D03*
%TD*%
D22*
%TO.C,R24*%
X139375000Y-72800000D03*
X141025000Y-72800000D03*
%TD*%
D28*
%TO.C,C55*%
X141750000Y-69350000D03*
X141750000Y-71250000D03*
%TD*%
D38*
%TO.C,T1*%
X78750000Y-42450000D03*
X85416667Y-42450000D03*
X92083333Y-42450000D03*
X98750000Y-42450000D03*
X98750000Y-62450000D03*
X78750000Y-62450000D03*
%TD*%
D23*
%TO.C,C22*%
X136275000Y-67300000D03*
X137825000Y-67300000D03*
%TD*%
D17*
%TO.C,R18*%
X141500000Y-66175000D03*
X141500000Y-67825000D03*
%TD*%
D15*
%TO.C,R13*%
X156000000Y-52110000D03*
X156000000Y-50460000D03*
%TD*%
D39*
%TO.C,D6*%
X135175000Y-38050000D03*
X133075000Y-38050000D03*
%TD*%
D28*
%TO.C,C32*%
X143800000Y-69350000D03*
X143800000Y-71250000D03*
%TD*%
D27*
%TO.C,C90*%
X124750000Y-78956667D03*
X123200000Y-78956667D03*
%TD*%
D21*
%TO.C,C29*%
X160650000Y-58375000D03*
X162550000Y-58375000D03*
%TD*%
D14*
%TO.C,J1*%
X166200000Y-55660000D03*
D13*
X166200000Y-58200000D03*
%TD*%
D30*
%TO.C,R3*%
X128375000Y-78000000D03*
X126725000Y-78000000D03*
%TD*%
D26*
%TO.C,C36*%
X130010000Y-69650000D03*
X130010000Y-67750000D03*
%TD*%
D28*
%TO.C,C40*%
X155700000Y-71335000D03*
X155700000Y-73235000D03*
%TD*%
D22*
%TO.C,R21*%
X154438333Y-56635000D03*
X156088333Y-56635000D03*
%TD*%
D21*
%TO.C,C49*%
X128400000Y-74100000D03*
X130300000Y-74100000D03*
%TD*%
D16*
%TO.C,C41*%
X160950000Y-74185000D03*
X159050000Y-74185000D03*
%TD*%
D28*
%TO.C,C57*%
X139700000Y-69350000D03*
X139700000Y-71250000D03*
%TD*%
D15*
%TO.C,R20*%
X126250000Y-75861667D03*
X126250000Y-74211667D03*
%TD*%
D17*
%TO.C,R25*%
X157500000Y-72785000D03*
X157500000Y-74435000D03*
%TD*%
%TO.C,R4*%
X130350000Y-77875000D03*
X130350000Y-79525000D03*
%TD*%
D22*
%TO.C,R8*%
X120175000Y-66200000D03*
X121825000Y-66200000D03*
%TD*%
D25*
%TO.C,C31*%
X163000000Y-66660000D03*
X163000000Y-68210000D03*
%TD*%
D20*
%TO.C,C10*%
X124725000Y-72775000D03*
X124725000Y-71225000D03*
%TD*%
D25*
%TO.C,C82*%
X151325000Y-50485000D03*
X151325000Y-52035000D03*
%TD*%
D23*
%TO.C,C81*%
X120100000Y-78975000D03*
X121650000Y-78975000D03*
%TD*%
D22*
%TO.C,R31*%
X159350000Y-77585000D03*
X161000000Y-77585000D03*
%TD*%
D30*
%TO.C,R23*%
X164125000Y-71885000D03*
X162475000Y-71885000D03*
%TD*%
D25*
%TO.C,C35*%
X163000000Y-63685000D03*
X163000000Y-65235000D03*
%TD*%
D29*
%TO.C,C26*%
X115700000Y-38500000D03*
X115700000Y-45900000D03*
%TD*%
D22*
%TO.C,R15*%
X157450000Y-50535000D03*
X159100000Y-50535000D03*
%TD*%
D30*
%TO.C,R35*%
X151050000Y-38900000D03*
X149400000Y-38900000D03*
%TD*%
D16*
%TO.C,C56*%
X160950000Y-72135000D03*
X159050000Y-72135000D03*
%TD*%
D22*
%TO.C,R22*%
X142400000Y-72800000D03*
X144050000Y-72800000D03*
%TD*%
D27*
%TO.C,C89*%
X124750000Y-80513334D03*
X123200000Y-80513334D03*
%TD*%
D25*
%TO.C,C80*%
X152881666Y-50485000D03*
X152881666Y-52035000D03*
%TD*%
D15*
%TO.C,R1*%
X152300000Y-58760000D03*
X152300000Y-57110000D03*
%TD*%
D26*
%TO.C,C24*%
X139700000Y-67750000D03*
X139700000Y-65850000D03*
%TD*%
D30*
%TO.C,R34*%
X151050000Y-40507500D03*
X149400000Y-40507500D03*
%TD*%
D23*
%TO.C,C34*%
X133300000Y-67300000D03*
X134850000Y-67300000D03*
%TD*%
D22*
%TO.C,R7*%
X160775000Y-50525000D03*
X162425000Y-50525000D03*
%TD*%
D40*
%TO.C,U3*%
X133400000Y-47692500D03*
D41*
X139700000Y-49972500D03*
D40*
X133400000Y-52252500D03*
%TD*%
D21*
%TO.C,C53*%
X128400000Y-72100000D03*
X130300000Y-72100000D03*
%TD*%
D26*
%TO.C,C18*%
X123950000Y-69650000D03*
X123950000Y-67750000D03*
%TD*%
M02*
