%TF.GenerationSoftware,KiCad,Pcbnew,9.0.0*%
%TF.CreationDate,2025-04-21T22:06:35+02:00*%
%TF.ProjectId,RIAA_preamp,52494141-5f70-4726-9561-6d702e6b6963,rev?*%
%TF.SameCoordinates,Original*%
%TF.FileFunction,Copper,L2,Bot*%
%TF.FilePolarity,Positive*%
%FSLAX46Y46*%
G04 Gerber Fmt 4.6, Leading zero omitted, Abs format (unit mm)*
G04 Created by KiCad (PCBNEW 9.0.0) date 2025-04-21 22:06:35*
%MOMM*%
%LPD*%
G01*
G04 APERTURE LIST*
G04 Aperture macros list*
%AMRoundRect*
0 Rectangle with rounded corners*
0 $1 Rounding radius*
0 $2 $3 $4 $5 $6 $7 $8 $9 X,Y pos of 4 corners*
0 Add a 4 corners polygon primitive as box body*
4,1,4,$2,$3,$4,$5,$6,$7,$8,$9,$2,$3,0*
0 Add four circle primitives for the rounded corners*
1,1,$1+$1,$2,$3*
1,1,$1+$1,$4,$5*
1,1,$1+$1,$6,$7*
1,1,$1+$1,$8,$9*
0 Add four rect primitives between the rounded corners*
20,1,$1+$1,$2,$3,$4,$5,0*
20,1,$1+$1,$4,$5,$6,$7,0*
20,1,$1+$1,$6,$7,$8,$9,0*
20,1,$1+$1,$8,$9,$2,$3,0*%
G04 Aperture macros list end*
%TA.AperFunction,ComponentPad*%
%ADD10C,1.270000*%
%TD*%
%TA.AperFunction,ComponentPad*%
%ADD11RoundRect,0.250000X1.125000X-1.125000X1.125000X1.125000X-1.125000X1.125000X-1.125000X-1.125000X0*%
%TD*%
%TA.AperFunction,ComponentPad*%
%ADD12C,2.750000*%
%TD*%
%TA.AperFunction,ComponentPad*%
%ADD13O,1.700000X1.700000*%
%TD*%
%TA.AperFunction,ComponentPad*%
%ADD14R,1.700000X1.700000*%
%TD*%
%TA.AperFunction,ComponentPad*%
%ADD15C,5.600000*%
%TD*%
%TA.AperFunction,ComponentPad*%
%ADD16C,1.800000*%
%TD*%
%TA.AperFunction,ComponentPad*%
%ADD17R,1.800000X1.800000*%
%TD*%
%TA.AperFunction,ComponentPad*%
%ADD18C,3.000000*%
%TD*%
%TA.AperFunction,ViaPad*%
%ADD19C,0.600000*%
%TD*%
%TA.AperFunction,Conductor*%
%ADD20C,0.800000*%
%TD*%
%TA.AperFunction,Conductor*%
%ADD21C,0.200000*%
%TD*%
%TA.AperFunction,Conductor*%
%ADD22C,0.400000*%
%TD*%
%TA.AperFunction,Conductor*%
%ADD23C,0.250000*%
%TD*%
G04 APERTURE END LIST*
D10*
%TO.P,F1,1*%
%TO.N,LINE*%
X97370000Y-72594000D03*
%TO.P,F1,2*%
%TO.N,Net-(F1-Pad2)*%
X92270000Y-70994000D03*
%TD*%
D11*
%TO.P,J4,1,Pin_1*%
%TO.N,LINE*%
X79509000Y-82782000D03*
D12*
%TO.P,J4,2,Pin_2*%
%TO.N,NEUT*%
X79509000Y-77382000D03*
%TD*%
D13*
%TO.P,J3,3,Pin_3*%
%TO.N,GND*%
X141645000Y-83100000D03*
%TO.P,J3,2,Pin_2*%
%TO.N,/OUTR*%
X144185000Y-83100000D03*
D14*
%TO.P,J3,1,Pin_1*%
%TO.N,/OUTL*%
X146725000Y-83100000D03*
%TD*%
D15*
%TO.P,H2,1,1*%
%TO.N,GND*%
X106500000Y-81700000D03*
%TD*%
D16*
%TO.P,RV1,1*%
%TO.N,Net-(F1-Pad2)*%
X87648000Y-72494000D03*
%TO.P,RV1,2*%
%TO.N,NEUT*%
X80148000Y-71094000D03*
%TD*%
D17*
%TO.P,D5,1,K*%
%TO.N,-15V*%
X156375000Y-40600000D03*
D16*
%TO.P,D5,2,A*%
%TO.N,Net-(D5-A)*%
X153835000Y-40600000D03*
%TD*%
D15*
%TO.P,H1,1,1*%
%TO.N,GND*%
X106500000Y-39450000D03*
%TD*%
%TO.P,H4,1,1*%
%TO.N,GND*%
X164500000Y-81700000D03*
%TD*%
%TO.P,H3,1,1*%
%TO.N,GND*%
X164500000Y-39700000D03*
%TD*%
D14*
%TO.P,J2,1,Pin_1*%
%TO.N,/Right/IN*%
X134625000Y-83000000D03*
D13*
%TO.P,J2,2,Pin_2*%
%TO.N,GND*%
X137165000Y-83000000D03*
%TD*%
D18*
%TO.P,T1,10*%
%TO.N,Net-(C25-Pad2)*%
X78750000Y-42450000D03*
%TO.P,T1,9*%
%TO.N,GND*%
X85416667Y-42450000D03*
%TO.P,T1,7*%
X92083333Y-42450000D03*
%TO.P,T1,6*%
%TO.N,Net-(D1-Pad2)*%
X98750000Y-42450000D03*
%TO.P,T1,5*%
%TO.N,Net-(F1-Pad2)*%
X98750000Y-62450000D03*
%TO.P,T1,1*%
%TO.N,NEUT*%
X78750000Y-62450000D03*
%TD*%
D14*
%TO.P,J1,1,Pin_1*%
%TO.N,/Left/IN*%
X166200000Y-55660000D03*
D13*
%TO.P,J1,2,Pin_2*%
%TO.N,GND*%
X166200000Y-58200000D03*
%TD*%
D19*
%TO.N,GND*%
X139778000Y-43727000D03*
%TO.N,Net-(C39-Pad1)*%
X162384000Y-76493000D03*
X157939000Y-75350000D03*
%TO.N,GND*%
X162130000Y-66333000D03*
X165051000Y-71921000D03*
X159336000Y-78652000D03*
X127078000Y-58840000D03*
X122760000Y-58840000D03*
X117680000Y-58840000D03*
X113616000Y-58840000D03*
X126844000Y-38500000D03*
X123014000Y-38520000D03*
X117680000Y-38520000D03*
X113870000Y-38520000D03*
X141302000Y-53633000D03*
X135714000Y-49950000D03*
%TO.N,+15V*%
X147100000Y-47537000D03*
X148541000Y-47537000D03*
%TO.N,GND*%
X137238000Y-37504000D03*
X146255000Y-43346000D03*
X144223000Y-43346000D03*
X142064000Y-43473000D03*
X141429000Y-44870000D03*
X137365000Y-57316000D03*
X135333000Y-57570000D03*
X133174000Y-57443000D03*
X131015000Y-57570000D03*
%TO.N,/Left/IN*%
X157177000Y-57824000D03*
%TO.N,GND*%
X153367000Y-69762000D03*
X148160000Y-53252000D03*
X148795000Y-54268000D03*
X153367000Y-57062000D03*
X149811000Y-60745000D03*
X146382000Y-71921000D03*
X139397000Y-77001000D03*
X130380000Y-80557000D03*
X126824000Y-80684000D03*
X122760000Y-82589000D03*
X123268000Y-81700000D03*
X142699000Y-65698000D03*
X136984000Y-68111000D03*
%TO.N,-15V*%
X140705000Y-63920000D03*
X139181000Y-63920000D03*
%TO.N,+15V*%
X135600000Y-68800000D03*
X140000000Y-64700000D03*
%TO.N,Net-(C28-Pad1)*%
X145112000Y-72810000D03*
X146128000Y-68238000D03*
%TD*%
D20*
%TO.N,LINE*%
X93100000Y-76300000D02*
X96806000Y-72594000D01*
X93100000Y-79991000D02*
X93100000Y-76300000D01*
X90309000Y-82782000D02*
X93100000Y-79991000D01*
X96806000Y-72594000D02*
X97370000Y-72594000D01*
X79509000Y-82782000D02*
X90309000Y-82782000D01*
%TO.N,Net-(F1-Pad2)*%
X92270000Y-64730000D02*
X92270000Y-70994000D01*
X94550000Y-62450000D02*
X92270000Y-64730000D01*
X98750000Y-62450000D02*
X94550000Y-62450000D01*
%TO.N,NEUT*%
X79509000Y-71733000D02*
X80148000Y-71094000D01*
X79509000Y-77382000D02*
X79509000Y-71733000D01*
X80148000Y-63848000D02*
X78750000Y-62450000D01*
X80148000Y-71094000D02*
X80148000Y-63848000D01*
%TO.N,Net-(F1-Pad2)*%
X89148000Y-70994000D02*
X87648000Y-72494000D01*
X92270000Y-70994000D02*
X89148000Y-70994000D01*
D21*
%TO.N,Net-(C39-Pad1)*%
X160479000Y-76493000D02*
X162384000Y-76493000D01*
X159336000Y-75350000D02*
X160479000Y-76493000D01*
X157939000Y-75350000D02*
X159336000Y-75350000D01*
%TO.N,Net-(C28-Pad1)*%
X146128000Y-70016000D02*
X145239000Y-70905000D01*
X145239000Y-70905000D02*
X145239000Y-72683000D01*
X145239000Y-72683000D02*
X145112000Y-72810000D01*
X146128000Y-68238000D02*
X146128000Y-70016000D01*
D22*
%TO.N,-15V*%
X139181000Y-63920000D02*
X140705000Y-63920000D01*
D23*
%TO.N,+15V*%
X147100000Y-47537000D02*
X148541000Y-47537000D01*
%TO.N,/Left/IN*%
X163151000Y-55660000D02*
X166200000Y-55660000D01*
X157177000Y-57824000D02*
X160987000Y-57824000D01*
X160987000Y-57824000D02*
X163151000Y-55660000D01*
D20*
%TO.N,GND*%
X106500000Y-81700000D02*
X112200000Y-81700000D01*
D22*
%TO.N,+15V*%
X135600000Y-67100000D02*
X135600000Y-68800000D01*
X138000000Y-64700000D02*
X135600000Y-67100000D01*
X140000000Y-64700000D02*
X138000000Y-64700000D01*
%TD*%
%TA.AperFunction,Conductor*%
%TO.N,GND*%
G36*
X105165320Y-36220185D02*
G01*
X105211075Y-36272989D01*
X105221019Y-36342147D01*
X105191994Y-36405703D01*
X105145733Y-36439061D01*
X105087371Y-36463235D01*
X105087359Y-36463240D01*
X104801419Y-36616079D01*
X104801401Y-36616090D01*
X104531829Y-36796212D01*
X104531815Y-36796222D01*
X104349444Y-36945890D01*
X104349443Y-36945891D01*
X105559301Y-38155748D01*
X105457670Y-38229588D01*
X105279588Y-38407670D01*
X105205748Y-38509301D01*
X103995891Y-37299443D01*
X103995890Y-37299444D01*
X103846222Y-37481815D01*
X103846212Y-37481829D01*
X103666090Y-37751401D01*
X103666079Y-37751419D01*
X103513240Y-38037359D01*
X103513238Y-38037364D01*
X103389157Y-38336921D01*
X103295033Y-38647207D01*
X103295030Y-38647218D01*
X103231782Y-38965198D01*
X103231779Y-38965215D01*
X103200000Y-39287884D01*
X103200000Y-39612115D01*
X103231779Y-39934784D01*
X103231782Y-39934801D01*
X103295030Y-40252781D01*
X103295033Y-40252792D01*
X103389157Y-40563078D01*
X103513238Y-40862635D01*
X103513240Y-40862640D01*
X103666079Y-41148580D01*
X103666090Y-41148598D01*
X103846212Y-41418170D01*
X103846222Y-41418184D01*
X103995890Y-41600554D01*
X103995891Y-41600555D01*
X105205748Y-40390698D01*
X105279588Y-40492330D01*
X105457670Y-40670412D01*
X105559300Y-40744251D01*
X104349443Y-41954107D01*
X104349444Y-41954108D01*
X104531815Y-42103777D01*
X104531829Y-42103787D01*
X104801401Y-42283909D01*
X104801419Y-42283920D01*
X105087359Y-42436759D01*
X105087364Y-42436761D01*
X105386921Y-42560842D01*
X105697207Y-42654966D01*
X105697218Y-42654969D01*
X106015198Y-42718217D01*
X106015215Y-42718220D01*
X106337884Y-42750000D01*
X106662116Y-42750000D01*
X106984784Y-42718220D01*
X106984801Y-42718217D01*
X107302781Y-42654969D01*
X107302792Y-42654966D01*
X107613078Y-42560842D01*
X107912635Y-42436761D01*
X107912640Y-42436759D01*
X108198580Y-42283920D01*
X108198598Y-42283909D01*
X108468170Y-42103787D01*
X108468183Y-42103777D01*
X108522209Y-42059440D01*
X108650554Y-41954108D01*
X108650554Y-41954107D01*
X107440698Y-40744251D01*
X107542330Y-40670412D01*
X107720412Y-40492330D01*
X107794251Y-40390698D01*
X109004107Y-41600554D01*
X109004108Y-41600554D01*
X109153777Y-41418183D01*
X109153787Y-41418170D01*
X109333909Y-41148598D01*
X109333920Y-41148580D01*
X109486759Y-40862640D01*
X109486761Y-40862635D01*
X109610842Y-40563078D01*
X109633077Y-40489778D01*
X152434500Y-40489778D01*
X152434500Y-40710222D01*
X152450791Y-40813078D01*
X152468985Y-40927952D01*
X152537103Y-41137603D01*
X152537104Y-41137606D01*
X152637187Y-41334025D01*
X152766752Y-41512358D01*
X152766756Y-41512363D01*
X152922636Y-41668243D01*
X152922641Y-41668247D01*
X153024606Y-41742328D01*
X153100978Y-41797815D01*
X153229375Y-41863237D01*
X153297393Y-41897895D01*
X153297396Y-41897896D01*
X153402221Y-41931955D01*
X153507049Y-41966015D01*
X153724778Y-42000500D01*
X153724779Y-42000500D01*
X153945221Y-42000500D01*
X153945222Y-42000500D01*
X154162951Y-41966015D01*
X154372606Y-41897895D01*
X154569022Y-41797815D01*
X154747365Y-41668242D01*
X154797536Y-41618070D01*
X154858857Y-41584586D01*
X154928548Y-41589570D01*
X154984482Y-41631441D01*
X155001398Y-41662419D01*
X155031202Y-41742328D01*
X155031206Y-41742335D01*
X155117452Y-41857544D01*
X155117455Y-41857547D01*
X155232664Y-41943793D01*
X155232671Y-41943797D01*
X155367517Y-41994091D01*
X155367516Y-41994091D01*
X155374444Y-41994835D01*
X155427127Y-42000500D01*
X157322872Y-42000499D01*
X157382483Y-41994091D01*
X157517331Y-41943796D01*
X157632546Y-41857546D01*
X157718796Y-41742331D01*
X157769091Y-41607483D01*
X157775500Y-41547873D01*
X157775499Y-39652128D01*
X157769091Y-39592517D01*
X157718796Y-39457669D01*
X157718795Y-39457668D01*
X157718793Y-39457664D01*
X157632547Y-39342455D01*
X157632544Y-39342452D01*
X157517335Y-39256206D01*
X157517328Y-39256202D01*
X157382482Y-39205908D01*
X157382483Y-39205908D01*
X157322883Y-39199501D01*
X157322881Y-39199500D01*
X157322873Y-39199500D01*
X157322864Y-39199500D01*
X155427129Y-39199500D01*
X155427123Y-39199501D01*
X155367516Y-39205908D01*
X155232671Y-39256202D01*
X155232664Y-39256206D01*
X155117455Y-39342452D01*
X155117452Y-39342455D01*
X155031206Y-39457664D01*
X155031203Y-39457669D01*
X155001398Y-39537581D01*
X154959526Y-39593514D01*
X154894062Y-39617931D01*
X154825789Y-39603079D01*
X154797535Y-39581928D01*
X154747363Y-39531756D01*
X154747358Y-39531752D01*
X154569025Y-39402187D01*
X154569024Y-39402186D01*
X154569022Y-39402185D01*
X154506096Y-39370122D01*
X154372606Y-39302104D01*
X154372603Y-39302103D01*
X154162952Y-39233985D01*
X154028260Y-39212652D01*
X153945222Y-39199500D01*
X153724778Y-39199500D01*
X153652201Y-39210995D01*
X153507047Y-39233985D01*
X153297396Y-39302103D01*
X153297393Y-39302104D01*
X153100974Y-39402187D01*
X152922641Y-39531752D01*
X152922636Y-39531756D01*
X152766756Y-39687636D01*
X152766752Y-39687641D01*
X152637187Y-39865974D01*
X152537104Y-40062393D01*
X152537103Y-40062396D01*
X152468985Y-40272047D01*
X152466366Y-40288583D01*
X152434500Y-40489778D01*
X109633077Y-40489778D01*
X109645474Y-40448911D01*
X109704966Y-40252792D01*
X109704969Y-40252781D01*
X109768217Y-39934801D01*
X109768220Y-39934784D01*
X109800000Y-39612115D01*
X109800000Y-39287884D01*
X109768220Y-38965215D01*
X109768217Y-38965198D01*
X109704969Y-38647218D01*
X109704966Y-38647207D01*
X109610842Y-38336921D01*
X109486761Y-38037364D01*
X109486759Y-38037359D01*
X109333920Y-37751419D01*
X109333909Y-37751401D01*
X109153787Y-37481829D01*
X109153777Y-37481815D01*
X109004108Y-37299444D01*
X109004107Y-37299443D01*
X107794250Y-38509300D01*
X107720412Y-38407670D01*
X107542330Y-38229588D01*
X107440697Y-38155747D01*
X108650555Y-36945891D01*
X108650554Y-36945890D01*
X108468184Y-36796222D01*
X108468170Y-36796212D01*
X108198598Y-36616090D01*
X108198580Y-36616079D01*
X107912640Y-36463240D01*
X107912628Y-36463235D01*
X107854267Y-36439061D01*
X107799863Y-36395220D01*
X107777798Y-36328926D01*
X107795077Y-36261227D01*
X107846214Y-36213616D01*
X107901719Y-36200500D01*
X163918939Y-36200500D01*
X163985978Y-36220185D01*
X164031733Y-36272989D01*
X164041677Y-36342147D01*
X164012652Y-36405703D01*
X163953874Y-36443477D01*
X163943130Y-36446117D01*
X163697218Y-36495030D01*
X163697207Y-36495033D01*
X163386921Y-36589157D01*
X163087364Y-36713238D01*
X163087359Y-36713240D01*
X162801419Y-36866079D01*
X162801401Y-36866090D01*
X162531829Y-37046212D01*
X162531815Y-37046222D01*
X162349444Y-37195890D01*
X162349443Y-37195891D01*
X163559301Y-38405748D01*
X163457670Y-38479588D01*
X163279588Y-38657670D01*
X163205748Y-38759301D01*
X161995891Y-37549443D01*
X161995890Y-37549444D01*
X161846222Y-37731815D01*
X161846212Y-37731829D01*
X161666090Y-38001401D01*
X161666079Y-38001419D01*
X161513240Y-38287359D01*
X161513238Y-38287364D01*
X161389157Y-38586921D01*
X161295033Y-38897207D01*
X161295030Y-38897218D01*
X161231782Y-39215198D01*
X161231779Y-39215215D01*
X161200000Y-39537884D01*
X161200000Y-39862115D01*
X161231779Y-40184784D01*
X161231782Y-40184801D01*
X161295030Y-40502781D01*
X161295033Y-40502792D01*
X161389157Y-40813078D01*
X161513238Y-41112635D01*
X161513240Y-41112640D01*
X161666079Y-41398580D01*
X161666090Y-41398598D01*
X161846212Y-41668170D01*
X161846222Y-41668184D01*
X161995890Y-41850554D01*
X161995891Y-41850555D01*
X163205748Y-40640698D01*
X163279588Y-40742330D01*
X163457670Y-40920412D01*
X163559300Y-40994251D01*
X162349443Y-42204107D01*
X162349444Y-42204108D01*
X162531815Y-42353777D01*
X162531829Y-42353787D01*
X162801401Y-42533909D01*
X162801419Y-42533920D01*
X163087359Y-42686759D01*
X163087364Y-42686761D01*
X163386921Y-42810842D01*
X163697207Y-42904966D01*
X163697218Y-42904969D01*
X164015198Y-42968217D01*
X164015215Y-42968220D01*
X164337884Y-43000000D01*
X164662116Y-43000000D01*
X164984784Y-42968220D01*
X164984801Y-42968217D01*
X165302781Y-42904969D01*
X165302792Y-42904966D01*
X165613078Y-42810842D01*
X165912635Y-42686761D01*
X165912640Y-42686759D01*
X166198580Y-42533920D01*
X166198598Y-42533909D01*
X166468170Y-42353787D01*
X166468183Y-42353777D01*
X166650554Y-42204108D01*
X166650554Y-42204107D01*
X165440698Y-40994251D01*
X165542330Y-40920412D01*
X165720412Y-40742330D01*
X165794251Y-40640698D01*
X167004107Y-41850554D01*
X167004108Y-41850554D01*
X167153777Y-41668183D01*
X167153787Y-41668170D01*
X167333909Y-41398598D01*
X167333920Y-41398580D01*
X167486759Y-41112640D01*
X167486761Y-41112635D01*
X167610842Y-40813078D01*
X167704966Y-40502792D01*
X167704969Y-40502781D01*
X167753883Y-40256869D01*
X167786267Y-40194958D01*
X167846983Y-40160384D01*
X167916752Y-40164123D01*
X167973425Y-40204989D01*
X167999006Y-40270007D01*
X167999500Y-40281060D01*
X167999500Y-81118939D01*
X167979815Y-81185978D01*
X167927011Y-81231733D01*
X167857853Y-81241677D01*
X167794297Y-81212652D01*
X167756523Y-81153874D01*
X167753883Y-81143130D01*
X167704969Y-80897218D01*
X167704966Y-80897207D01*
X167610842Y-80586921D01*
X167486761Y-80287364D01*
X167486759Y-80287359D01*
X167333920Y-80001419D01*
X167333909Y-80001401D01*
X167153787Y-79731829D01*
X167153777Y-79731815D01*
X167004108Y-79549444D01*
X167004107Y-79549443D01*
X165794250Y-80759300D01*
X165720412Y-80657670D01*
X165542330Y-80479588D01*
X165440697Y-80405747D01*
X166650555Y-79195891D01*
X166650554Y-79195890D01*
X166468184Y-79046222D01*
X166468170Y-79046212D01*
X166198598Y-78866090D01*
X166198580Y-78866079D01*
X165912640Y-78713240D01*
X165912635Y-78713238D01*
X165613078Y-78589157D01*
X165302792Y-78495033D01*
X165302781Y-78495030D01*
X164984801Y-78431782D01*
X164984784Y-78431779D01*
X164662116Y-78400000D01*
X164337884Y-78400000D01*
X164015215Y-78431779D01*
X164015198Y-78431782D01*
X163697218Y-78495030D01*
X163697207Y-78495033D01*
X163386921Y-78589157D01*
X163087364Y-78713238D01*
X163087359Y-78713240D01*
X162801419Y-78866079D01*
X162801401Y-78866090D01*
X162531829Y-79046212D01*
X162531815Y-79046222D01*
X162349444Y-79195890D01*
X162349443Y-79195891D01*
X163559301Y-80405748D01*
X163457670Y-80479588D01*
X163279588Y-80657670D01*
X163205748Y-80759301D01*
X161995891Y-79549443D01*
X161995890Y-79549444D01*
X161846222Y-79731815D01*
X161846212Y-79731829D01*
X161666090Y-80001401D01*
X161666079Y-80001419D01*
X161513240Y-80287359D01*
X161513238Y-80287364D01*
X161389157Y-80586921D01*
X161295033Y-80897207D01*
X161295030Y-80897218D01*
X161231782Y-81215198D01*
X161231779Y-81215215D01*
X161200000Y-81537884D01*
X161200000Y-81862115D01*
X161231779Y-82184784D01*
X161231782Y-82184801D01*
X161295030Y-82502781D01*
X161295033Y-82502792D01*
X161389157Y-82813078D01*
X161513238Y-83112635D01*
X161513240Y-83112640D01*
X161666079Y-83398580D01*
X161666090Y-83398598D01*
X161846212Y-83668170D01*
X161846222Y-83668184D01*
X161995890Y-83850554D01*
X161995891Y-83850555D01*
X163205748Y-82640698D01*
X163279588Y-82742330D01*
X163457670Y-82920412D01*
X163559300Y-82994251D01*
X162349443Y-84204107D01*
X162349444Y-84204108D01*
X162531815Y-84353777D01*
X162531829Y-84353787D01*
X162801401Y-84533909D01*
X162801419Y-84533920D01*
X163087359Y-84686759D01*
X163087364Y-84686761D01*
X163386921Y-84810842D01*
X163697207Y-84904966D01*
X163697218Y-84904969D01*
X163943130Y-84953883D01*
X164005041Y-84986267D01*
X164039615Y-85046983D01*
X164035876Y-85116753D01*
X163995010Y-85173425D01*
X163929992Y-85199006D01*
X163918939Y-85199500D01*
X108904000Y-85199500D01*
X108836961Y-85179815D01*
X108791206Y-85127011D01*
X108780000Y-85075500D01*
X108780000Y-84270751D01*
X108780000Y-83626447D01*
X109004107Y-83850554D01*
X109004108Y-83850554D01*
X109153777Y-83668183D01*
X109153787Y-83668170D01*
X109333909Y-83398598D01*
X109333920Y-83398580D01*
X109486759Y-83112640D01*
X109486761Y-83112635D01*
X109610842Y-82813078D01*
X109704966Y-82502792D01*
X109704969Y-82502781D01*
X109768217Y-82184801D01*
X109768220Y-82184783D01*
X109776360Y-82102135D01*
X133274500Y-82102135D01*
X133274500Y-83897870D01*
X133274501Y-83897876D01*
X133280908Y-83957483D01*
X133331202Y-84092328D01*
X133331206Y-84092335D01*
X133417452Y-84207544D01*
X133417455Y-84207547D01*
X133532664Y-84293793D01*
X133532671Y-84293797D01*
X133667517Y-84344091D01*
X133667516Y-84344091D01*
X133674444Y-84344835D01*
X133727127Y-84350500D01*
X135522872Y-84350499D01*
X135582483Y-84344091D01*
X135717331Y-84293796D01*
X135832546Y-84207546D01*
X135918796Y-84092331D01*
X135968002Y-83960401D01*
X136009872Y-83904468D01*
X136075337Y-83880050D01*
X136143610Y-83894901D01*
X136171865Y-83916053D01*
X136285535Y-84029723D01*
X136285540Y-84029727D01*
X136457442Y-84154620D01*
X136646782Y-84251095D01*
X136848871Y-84316757D01*
X136915000Y-84327231D01*
X136915000Y-83433012D01*
X136972007Y-83465925D01*
X137099174Y-83500000D01*
X137230826Y-83500000D01*
X137357993Y-83465925D01*
X137415000Y-83433012D01*
X137415000Y-84327230D01*
X137481126Y-84316757D01*
X137481129Y-84316757D01*
X137683217Y-84251095D01*
X137872557Y-84154620D01*
X138044459Y-84029727D01*
X138044464Y-84029723D01*
X138194723Y-83879464D01*
X138194727Y-83879459D01*
X138319620Y-83707557D01*
X138416095Y-83518217D01*
X138481757Y-83316129D01*
X138485336Y-83293536D01*
X138485336Y-83293534D01*
X138492231Y-83250000D01*
X137598012Y-83250000D01*
X137630925Y-83192993D01*
X137665000Y-83065826D01*
X137665000Y-82934174D01*
X137642445Y-82850000D01*
X140317769Y-82850000D01*
X141211988Y-82850000D01*
X141179075Y-82907007D01*
X141145000Y-83034174D01*
X141145000Y-83165826D01*
X141179075Y-83292993D01*
X141211988Y-83350000D01*
X140317769Y-83350000D01*
X140328242Y-83416126D01*
X140328242Y-83416129D01*
X140393904Y-83618217D01*
X140490379Y-83807557D01*
X140615272Y-83979459D01*
X140615276Y-83979464D01*
X140765535Y-84129723D01*
X140765540Y-84129727D01*
X140937442Y-84254620D01*
X141126782Y-84351095D01*
X141328871Y-84416757D01*
X141395000Y-84427231D01*
X141395000Y-83533012D01*
X141452007Y-83565925D01*
X141579174Y-83600000D01*
X141710826Y-83600000D01*
X141837993Y-83565925D01*
X141895000Y-83533012D01*
X141895000Y-84427230D01*
X141961126Y-84416757D01*
X141961129Y-84416757D01*
X142163217Y-84351095D01*
X142352557Y-84254620D01*
X142524459Y-84129727D01*
X142524464Y-84129723D01*
X142674723Y-83979464D01*
X142674727Y-83979459D01*
X142799620Y-83807558D01*
X142804232Y-83798507D01*
X142852205Y-83747709D01*
X142920025Y-83730912D01*
X142986161Y-83753447D01*
X143025204Y-83798504D01*
X143029949Y-83807817D01*
X143154890Y-83979786D01*
X143305213Y-84130109D01*
X143477179Y-84255048D01*
X143477181Y-84255049D01*
X143477184Y-84255051D01*
X143666588Y-84351557D01*
X143868757Y-84417246D01*
X144078713Y-84450500D01*
X144078714Y-84450500D01*
X144291286Y-84450500D01*
X144291287Y-84450500D01*
X144501243Y-84417246D01*
X144703412Y-84351557D01*
X144892816Y-84255051D01*
X144958200Y-84207547D01*
X145064784Y-84130110D01*
X145064784Y-84130109D01*
X145064792Y-84130104D01*
X145178329Y-84016566D01*
X145239648Y-83983084D01*
X145309340Y-83988068D01*
X145365274Y-84029939D01*
X145382189Y-84060917D01*
X145431202Y-84192328D01*
X145431206Y-84192335D01*
X145517452Y-84307544D01*
X145517455Y-84307547D01*
X145632664Y-84393793D01*
X145632671Y-84393797D01*
X145767517Y-84444091D01*
X145767516Y-84444091D01*
X145774444Y-84444835D01*
X145827127Y-84450500D01*
X147622872Y-84450499D01*
X147682483Y-84444091D01*
X147817331Y-84393796D01*
X147932546Y-84307546D01*
X148018796Y-84192331D01*
X148069091Y-84057483D01*
X148075500Y-83997873D01*
X148075499Y-82202128D01*
X148069091Y-82142517D01*
X148067810Y-82139083D01*
X148018797Y-82007671D01*
X148018793Y-82007664D01*
X147932547Y-81892455D01*
X147932544Y-81892452D01*
X147817335Y-81806206D01*
X147817328Y-81806202D01*
X147682482Y-81755908D01*
X147682483Y-81755908D01*
X147622883Y-81749501D01*
X147622881Y-81749500D01*
X147622873Y-81749500D01*
X147622864Y-81749500D01*
X145827129Y-81749500D01*
X145827123Y-81749501D01*
X145767516Y-81755908D01*
X145632671Y-81806202D01*
X145632664Y-81806206D01*
X145517455Y-81892452D01*
X145517452Y-81892455D01*
X145431206Y-82007664D01*
X145431203Y-82007669D01*
X145382189Y-82139083D01*
X145340317Y-82195016D01*
X145274853Y-82219433D01*
X145206580Y-82204581D01*
X145178326Y-82183430D01*
X145064786Y-82069890D01*
X144892820Y-81944951D01*
X144703414Y-81848444D01*
X144703413Y-81848443D01*
X144703412Y-81848443D01*
X144501243Y-81782754D01*
X144501241Y-81782753D01*
X144501240Y-81782753D01*
X144339957Y-81757208D01*
X144291287Y-81749500D01*
X144078713Y-81749500D01*
X144030042Y-81757208D01*
X143868760Y-81782753D01*
X143666585Y-81848444D01*
X143477179Y-81944951D01*
X143305213Y-82069890D01*
X143154890Y-82220213D01*
X143029949Y-82392182D01*
X143025202Y-82401499D01*
X142977227Y-82452293D01*
X142909405Y-82469087D01*
X142843271Y-82446548D01*
X142804234Y-82401495D01*
X142799622Y-82392444D01*
X142674727Y-82220540D01*
X142674723Y-82220535D01*
X142524464Y-82070276D01*
X142524459Y-82070272D01*
X142352557Y-81945379D01*
X142163215Y-81848903D01*
X141961124Y-81783241D01*
X141895000Y-81772768D01*
X141895000Y-82666988D01*
X141837993Y-82634075D01*
X141710826Y-82600000D01*
X141579174Y-82600000D01*
X141452007Y-82634075D01*
X141395000Y-82666988D01*
X141395000Y-81772768D01*
X141394999Y-81772768D01*
X141328875Y-81783241D01*
X141126784Y-81848903D01*
X140937442Y-81945379D01*
X140765540Y-82070272D01*
X140765535Y-82070276D01*
X140615276Y-82220535D01*
X140615272Y-82220540D01*
X140490379Y-82392442D01*
X140393904Y-82581782D01*
X140328242Y-82783870D01*
X140328242Y-82783873D01*
X140317769Y-82850000D01*
X137642445Y-82850000D01*
X137630925Y-82807007D01*
X137598012Y-82750000D01*
X138492231Y-82750000D01*
X138481757Y-82683873D01*
X138481757Y-82683870D01*
X138416095Y-82481782D01*
X138319620Y-82292442D01*
X138194727Y-82120540D01*
X138194723Y-82120535D01*
X138044464Y-81970276D01*
X138044459Y-81970272D01*
X137872557Y-81845379D01*
X137683215Y-81748903D01*
X137481124Y-81683241D01*
X137415000Y-81672768D01*
X137415000Y-82566988D01*
X137357993Y-82534075D01*
X137230826Y-82500000D01*
X137099174Y-82500000D01*
X136972007Y-82534075D01*
X136915000Y-82566988D01*
X136915000Y-81672768D01*
X136914999Y-81672768D01*
X136848875Y-81683241D01*
X136646784Y-81748903D01*
X136457442Y-81845379D01*
X136285541Y-81970271D01*
X136171865Y-82083947D01*
X136110542Y-82117431D01*
X136040850Y-82112447D01*
X135984917Y-82070575D01*
X135968002Y-82039598D01*
X135956093Y-82007669D01*
X135918796Y-81907669D01*
X135918795Y-81907668D01*
X135918793Y-81907664D01*
X135832547Y-81792455D01*
X135832544Y-81792452D01*
X135717335Y-81706206D01*
X135717328Y-81706202D01*
X135582482Y-81655908D01*
X135522883Y-81649501D01*
X135522881Y-81649500D01*
X135522873Y-81649500D01*
X135522864Y-81649500D01*
X133727129Y-81649500D01*
X133727123Y-81649501D01*
X133667516Y-81655908D01*
X133532671Y-81706202D01*
X133532664Y-81706206D01*
X133417455Y-81792452D01*
X133417452Y-81792455D01*
X133331206Y-81907664D01*
X133331202Y-81907671D01*
X133280908Y-82042517D01*
X133274501Y-82102116D01*
X133274500Y-82102135D01*
X109776360Y-82102135D01*
X109777885Y-82086653D01*
X109777885Y-82086652D01*
X109800000Y-81862115D01*
X109800000Y-81537884D01*
X109768220Y-81215215D01*
X109768217Y-81215198D01*
X109704969Y-80897218D01*
X109704966Y-80897207D01*
X109610842Y-80586921D01*
X109486761Y-80287364D01*
X109486759Y-80287359D01*
X109333920Y-80001419D01*
X109333909Y-80001401D01*
X109153787Y-79731829D01*
X109153777Y-79731815D01*
X109004108Y-79549444D01*
X109004107Y-79549443D01*
X108780000Y-79773550D01*
X108780000Y-75271153D01*
X157138500Y-75271153D01*
X157138500Y-75428846D01*
X157169261Y-75583489D01*
X157169264Y-75583501D01*
X157229602Y-75729172D01*
X157229609Y-75729185D01*
X157317210Y-75860288D01*
X157317213Y-75860292D01*
X157428707Y-75971786D01*
X157428711Y-75971789D01*
X157559814Y-76059390D01*
X157559827Y-76059397D01*
X157691220Y-76113821D01*
X157705503Y-76119737D01*
X157840592Y-76146608D01*
X157860153Y-76150499D01*
X157860156Y-76150500D01*
X157860158Y-76150500D01*
X158017844Y-76150500D01*
X158017845Y-76150499D01*
X158172497Y-76119737D01*
X158318179Y-76059394D01*
X158399307Y-76005186D01*
X158449875Y-75971398D01*
X158516553Y-75950520D01*
X158518766Y-75950500D01*
X159035903Y-75950500D01*
X159102942Y-75970185D01*
X159123584Y-75986819D01*
X159994139Y-76857374D01*
X159994149Y-76857385D01*
X159998479Y-76861715D01*
X159998480Y-76861716D01*
X160110284Y-76973520D01*
X160182690Y-77015323D01*
X160247215Y-77052577D01*
X160399943Y-77093500D01*
X160558057Y-77093500D01*
X161804234Y-77093500D01*
X161871273Y-77113185D01*
X161873125Y-77114398D01*
X162004814Y-77202390D01*
X162004827Y-77202397D01*
X162141657Y-77259073D01*
X162150503Y-77262737D01*
X162305153Y-77293499D01*
X162305156Y-77293500D01*
X162305158Y-77293500D01*
X162462844Y-77293500D01*
X162462845Y-77293499D01*
X162617497Y-77262737D01*
X162763179Y-77202394D01*
X162894289Y-77114789D01*
X163005789Y-77003289D01*
X163093394Y-76872179D01*
X163153737Y-76726497D01*
X163184500Y-76571842D01*
X163184500Y-76414158D01*
X163184500Y-76414155D01*
X163184499Y-76414153D01*
X163153738Y-76259510D01*
X163153737Y-76259503D01*
X163133775Y-76211309D01*
X163093397Y-76113827D01*
X163093390Y-76113814D01*
X163005789Y-75982711D01*
X163005786Y-75982707D01*
X162894292Y-75871213D01*
X162894288Y-75871210D01*
X162763185Y-75783609D01*
X162763172Y-75783602D01*
X162617501Y-75723264D01*
X162617489Y-75723261D01*
X162462845Y-75692500D01*
X162462842Y-75692500D01*
X162305158Y-75692500D01*
X162305155Y-75692500D01*
X162150510Y-75723261D01*
X162150498Y-75723264D01*
X162004827Y-75783602D01*
X162004814Y-75783609D01*
X161873125Y-75871602D01*
X161806447Y-75892480D01*
X161804234Y-75892500D01*
X160779097Y-75892500D01*
X160712058Y-75872815D01*
X160691416Y-75856181D01*
X159823590Y-74988355D01*
X159823588Y-74988352D01*
X159704717Y-74869481D01*
X159704716Y-74869480D01*
X159617904Y-74819360D01*
X159617904Y-74819359D01*
X159617900Y-74819358D01*
X159567785Y-74790423D01*
X159415057Y-74749499D01*
X159256943Y-74749499D01*
X159249347Y-74749499D01*
X159249331Y-74749500D01*
X158518766Y-74749500D01*
X158451727Y-74729815D01*
X158449875Y-74728602D01*
X158318185Y-74640609D01*
X158318172Y-74640602D01*
X158172501Y-74580264D01*
X158172489Y-74580261D01*
X158017845Y-74549500D01*
X158017842Y-74549500D01*
X157860158Y-74549500D01*
X157860155Y-74549500D01*
X157705510Y-74580261D01*
X157705498Y-74580264D01*
X157559827Y-74640602D01*
X157559814Y-74640609D01*
X157428711Y-74728210D01*
X157428707Y-74728213D01*
X157317213Y-74839707D01*
X157317210Y-74839711D01*
X157229609Y-74970814D01*
X157229602Y-74970827D01*
X157169264Y-75116498D01*
X157169261Y-75116510D01*
X157138500Y-75271153D01*
X108780000Y-75271153D01*
X108780000Y-72731153D01*
X144311500Y-72731153D01*
X144311500Y-72888846D01*
X144342261Y-73043489D01*
X144342264Y-73043501D01*
X144402602Y-73189172D01*
X144402609Y-73189185D01*
X144490210Y-73320288D01*
X144490213Y-73320292D01*
X144601707Y-73431786D01*
X144601711Y-73431789D01*
X144732814Y-73519390D01*
X144732827Y-73519397D01*
X144878498Y-73579735D01*
X144878503Y-73579737D01*
X145033153Y-73610499D01*
X145033156Y-73610500D01*
X145033158Y-73610500D01*
X145190844Y-73610500D01*
X145190845Y-73610499D01*
X145345497Y-73579737D01*
X145491179Y-73519394D01*
X145622289Y-73431789D01*
X145733789Y-73320289D01*
X145821394Y-73189179D01*
X145821414Y-73189132D01*
X145881735Y-73043501D01*
X145881737Y-73043497D01*
X145912500Y-72888842D01*
X145912500Y-72731158D01*
X145912500Y-72731155D01*
X145912499Y-72731153D01*
X145881739Y-72576511D01*
X145881736Y-72576501D01*
X145848939Y-72497321D01*
X145839500Y-72449869D01*
X145839500Y-71205096D01*
X145859185Y-71138057D01*
X145875815Y-71117419D01*
X146486506Y-70506727D01*
X146486511Y-70506724D01*
X146496714Y-70496520D01*
X146496716Y-70496520D01*
X146608520Y-70384716D01*
X146660585Y-70294536D01*
X146687577Y-70247785D01*
X146728501Y-70095057D01*
X146728501Y-69936943D01*
X146728501Y-69929348D01*
X146728500Y-69929330D01*
X146728500Y-68817765D01*
X146748185Y-68750726D01*
X146749398Y-68748874D01*
X146837390Y-68617185D01*
X146837390Y-68617184D01*
X146837394Y-68617179D01*
X146897737Y-68471497D01*
X146928500Y-68316842D01*
X146928500Y-68159158D01*
X146928500Y-68159155D01*
X146928499Y-68159153D01*
X146897738Y-68004510D01*
X146897737Y-68004503D01*
X146897735Y-68004498D01*
X146837397Y-67858827D01*
X146837390Y-67858814D01*
X146749789Y-67727711D01*
X146749786Y-67727707D01*
X146638292Y-67616213D01*
X146638288Y-67616210D01*
X146507185Y-67528609D01*
X146507172Y-67528602D01*
X146361501Y-67468264D01*
X146361489Y-67468261D01*
X146206845Y-67437500D01*
X146206842Y-67437500D01*
X146049158Y-67437500D01*
X146049155Y-67437500D01*
X145894510Y-67468261D01*
X145894498Y-67468264D01*
X145748827Y-67528602D01*
X145748814Y-67528609D01*
X145617711Y-67616210D01*
X145617707Y-67616213D01*
X145506213Y-67727707D01*
X145506210Y-67727711D01*
X145418609Y-67858814D01*
X145418602Y-67858827D01*
X145358264Y-68004498D01*
X145358261Y-68004510D01*
X145327500Y-68159153D01*
X145327500Y-68316846D01*
X145358261Y-68471489D01*
X145358264Y-68471501D01*
X145418602Y-68617172D01*
X145418609Y-68617185D01*
X145506602Y-68748874D01*
X145527480Y-68815551D01*
X145527500Y-68817765D01*
X145527500Y-69715902D01*
X145507815Y-69782941D01*
X145491181Y-69803583D01*
X144758481Y-70536282D01*
X144758479Y-70536285D01*
X144745874Y-70558119D01*
X144728178Y-70588769D01*
X144679423Y-70673215D01*
X144638499Y-70825943D01*
X144638499Y-70825945D01*
X144638499Y-70994046D01*
X144638500Y-70994059D01*
X144638500Y-72100059D01*
X144618815Y-72167098D01*
X144602181Y-72187740D01*
X144490213Y-72299707D01*
X144490210Y-72299711D01*
X144402609Y-72430814D01*
X144402602Y-72430827D01*
X144342264Y-72576498D01*
X144342261Y-72576510D01*
X144311500Y-72731153D01*
X108780000Y-72731153D01*
X108780000Y-68721153D01*
X134799500Y-68721153D01*
X134799500Y-68878846D01*
X134830261Y-69033489D01*
X134830264Y-69033501D01*
X134890602Y-69179172D01*
X134890609Y-69179185D01*
X134978210Y-69310288D01*
X134978213Y-69310292D01*
X135089707Y-69421786D01*
X135089711Y-69421789D01*
X135220814Y-69509390D01*
X135220827Y-69509397D01*
X135366498Y-69569735D01*
X135366503Y-69569737D01*
X135521153Y-69600499D01*
X135521156Y-69600500D01*
X135521158Y-69600500D01*
X135678844Y-69600500D01*
X135678845Y-69600499D01*
X135833497Y-69569737D01*
X135979179Y-69509394D01*
X136110289Y-69421789D01*
X136221789Y-69310289D01*
X136309394Y-69179179D01*
X136369737Y-69033497D01*
X136400500Y-68878842D01*
X136400500Y-68721158D01*
X136400500Y-68721155D01*
X136400499Y-68721153D01*
X136379817Y-68617179D01*
X136369737Y-68566503D01*
X136309939Y-68422136D01*
X136300500Y-68374684D01*
X136300500Y-67441519D01*
X136320185Y-67374480D01*
X136336819Y-67353838D01*
X138253838Y-65436819D01*
X138315161Y-65403334D01*
X138341519Y-65400500D01*
X139574684Y-65400500D01*
X139622136Y-65409939D01*
X139687031Y-65436819D01*
X139766503Y-65469737D01*
X139921153Y-65500499D01*
X139921156Y-65500500D01*
X139921158Y-65500500D01*
X140078844Y-65500500D01*
X140078845Y-65500499D01*
X140233497Y-65469737D01*
X140379179Y-65409394D01*
X140510289Y-65321789D01*
X140621789Y-65210289D01*
X140709394Y-65079179D01*
X140769737Y-64933497D01*
X140797105Y-64795906D01*
X140829489Y-64733997D01*
X140890205Y-64699423D01*
X140894485Y-64698491D01*
X140938497Y-64689737D01*
X141084179Y-64629394D01*
X141215289Y-64541789D01*
X141326789Y-64430289D01*
X141414394Y-64299179D01*
X141474737Y-64153497D01*
X141505500Y-63998842D01*
X141505500Y-63841158D01*
X141505500Y-63841155D01*
X141505499Y-63841153D01*
X141474738Y-63686510D01*
X141474737Y-63686503D01*
X141432832Y-63585334D01*
X141414397Y-63540827D01*
X141414390Y-63540814D01*
X141326789Y-63409711D01*
X141326786Y-63409707D01*
X141215292Y-63298213D01*
X141215288Y-63298210D01*
X141084185Y-63210609D01*
X141084172Y-63210602D01*
X140938501Y-63150264D01*
X140938489Y-63150261D01*
X140783845Y-63119500D01*
X140783842Y-63119500D01*
X140626158Y-63119500D01*
X140626155Y-63119500D01*
X140471510Y-63150261D01*
X140471498Y-63150264D01*
X140327136Y-63210061D01*
X140279684Y-63219500D01*
X139606316Y-63219500D01*
X139558864Y-63210061D01*
X139414501Y-63150264D01*
X139414489Y-63150261D01*
X139259845Y-63119500D01*
X139259842Y-63119500D01*
X139102158Y-63119500D01*
X139102155Y-63119500D01*
X138947510Y-63150261D01*
X138947498Y-63150264D01*
X138801827Y-63210602D01*
X138801814Y-63210609D01*
X138670711Y-63298210D01*
X138670707Y-63298213D01*
X138559213Y-63409707D01*
X138559210Y-63409711D01*
X138471609Y-63540814D01*
X138471602Y-63540827D01*
X138411264Y-63686498D01*
X138411261Y-63686510D01*
X138380500Y-63841153D01*
X138380500Y-63875500D01*
X138360815Y-63942539D01*
X138308011Y-63988294D01*
X138256500Y-63999500D01*
X137931004Y-63999500D01*
X137795677Y-64026418D01*
X137795667Y-64026421D01*
X137668192Y-64079222D01*
X137553454Y-64155887D01*
X135055887Y-66653454D01*
X134979223Y-66768192D01*
X134926421Y-66895668D01*
X134926418Y-66895679D01*
X134911772Y-66969313D01*
X134911772Y-66969315D01*
X134899500Y-67031005D01*
X134899500Y-68374684D01*
X134890061Y-68422136D01*
X134830264Y-68566498D01*
X134830261Y-68566510D01*
X134799500Y-68721153D01*
X108780000Y-68721153D01*
X108780000Y-57745153D01*
X156376500Y-57745153D01*
X156376500Y-57902846D01*
X156407261Y-58057489D01*
X156407264Y-58057501D01*
X156467602Y-58203172D01*
X156467609Y-58203185D01*
X156555209Y-58334287D01*
X156555212Y-58334291D01*
X156666707Y-58445786D01*
X156666711Y-58445789D01*
X156797814Y-58533390D01*
X156797827Y-58533397D01*
X156943498Y-58593735D01*
X156943503Y-58593737D01*
X157098153Y-58624499D01*
X157098156Y-58624500D01*
X157098158Y-58624500D01*
X157255844Y-58624500D01*
X157255845Y-58624499D01*
X157410497Y-58593737D01*
X157556179Y-58533394D01*
X157650459Y-58470398D01*
X157717136Y-58449520D01*
X157719350Y-58449500D01*
X161048607Y-58449500D01*
X161109029Y-58437481D01*
X161169452Y-58425463D01*
X161202792Y-58411652D01*
X161283286Y-58378312D01*
X161349169Y-58334289D01*
X161385733Y-58309858D01*
X161472858Y-58222733D01*
X161472859Y-58222731D01*
X161479925Y-58215665D01*
X161479927Y-58215661D01*
X163373771Y-56321819D01*
X163435094Y-56288334D01*
X163461452Y-56285500D01*
X164725501Y-56285500D01*
X164792540Y-56305185D01*
X164838295Y-56357989D01*
X164849501Y-56409500D01*
X164849501Y-56557876D01*
X164855908Y-56617483D01*
X164906202Y-56752328D01*
X164906206Y-56752335D01*
X164992452Y-56867544D01*
X164992455Y-56867547D01*
X165107664Y-56953793D01*
X165107671Y-56953797D01*
X165107674Y-56953798D01*
X165239598Y-57003002D01*
X165295531Y-57044873D01*
X165319949Y-57110337D01*
X165305098Y-57178610D01*
X165283947Y-57206865D01*
X165170271Y-57320541D01*
X165045379Y-57492442D01*
X164948904Y-57681782D01*
X164883242Y-57883870D01*
X164883242Y-57883873D01*
X164872769Y-57950000D01*
X165766988Y-57950000D01*
X165734075Y-58007007D01*
X165700000Y-58134174D01*
X165700000Y-58265826D01*
X165734075Y-58392993D01*
X165766988Y-58450000D01*
X164872769Y-58450000D01*
X164883242Y-58516126D01*
X164883242Y-58516129D01*
X164948904Y-58718217D01*
X165045379Y-58907557D01*
X165170272Y-59079459D01*
X165170276Y-59079464D01*
X165320535Y-59229723D01*
X165320540Y-59229727D01*
X165492442Y-59354620D01*
X165681782Y-59451095D01*
X165883871Y-59516757D01*
X165950000Y-59527231D01*
X165950000Y-58633012D01*
X166007007Y-58665925D01*
X166134174Y-58700000D01*
X166265826Y-58700000D01*
X166392993Y-58665925D01*
X166450000Y-58633012D01*
X166450000Y-59527230D01*
X166516126Y-59516757D01*
X166516129Y-59516757D01*
X166718217Y-59451095D01*
X166907557Y-59354620D01*
X167079459Y-59229727D01*
X167079464Y-59229723D01*
X167229723Y-59079464D01*
X167229727Y-59079459D01*
X167354620Y-58907557D01*
X167451095Y-58718217D01*
X167516757Y-58516129D01*
X167516757Y-58516126D01*
X167527231Y-58450000D01*
X166633012Y-58450000D01*
X166665925Y-58392993D01*
X166700000Y-58265826D01*
X166700000Y-58134174D01*
X166665925Y-58007007D01*
X166633012Y-57950000D01*
X167527231Y-57950000D01*
X167516757Y-57883873D01*
X167516757Y-57883870D01*
X167451095Y-57681782D01*
X167354620Y-57492442D01*
X167229727Y-57320540D01*
X167229723Y-57320535D01*
X167116053Y-57206865D01*
X167082568Y-57145542D01*
X167087552Y-57075850D01*
X167129424Y-57019917D01*
X167160400Y-57003002D01*
X167292331Y-56953796D01*
X167407546Y-56867546D01*
X167493796Y-56752331D01*
X167544091Y-56617483D01*
X167550500Y-56557873D01*
X167550499Y-54762128D01*
X167544091Y-54702517D01*
X167493796Y-54567669D01*
X167493795Y-54567668D01*
X167493793Y-54567664D01*
X167407547Y-54452455D01*
X167407544Y-54452452D01*
X167292335Y-54366206D01*
X167292328Y-54366202D01*
X167157482Y-54315908D01*
X167157483Y-54315908D01*
X167097883Y-54309501D01*
X167097881Y-54309500D01*
X167097873Y-54309500D01*
X167097864Y-54309500D01*
X165302129Y-54309500D01*
X165302123Y-54309501D01*
X165242516Y-54315908D01*
X165107671Y-54366202D01*
X165107664Y-54366206D01*
X164992455Y-54452452D01*
X164992452Y-54452455D01*
X164906206Y-54567664D01*
X164906202Y-54567671D01*
X164855908Y-54702517D01*
X164849501Y-54762116D01*
X164849501Y-54762123D01*
X164849500Y-54762135D01*
X164849500Y-54910500D01*
X164829815Y-54977539D01*
X164777011Y-55023294D01*
X164725500Y-55034500D01*
X163089389Y-55034500D01*
X163028971Y-55046518D01*
X162991259Y-55054019D01*
X162968550Y-55058536D01*
X162968548Y-55058537D01*
X162935207Y-55072347D01*
X162854719Y-55105684D01*
X162854705Y-55105692D01*
X162752272Y-55174138D01*
X162752264Y-55174144D01*
X162665139Y-55261270D01*
X160764229Y-57162181D01*
X160702906Y-57195666D01*
X160676548Y-57198500D01*
X157719350Y-57198500D01*
X157652311Y-57178815D01*
X157650459Y-57177602D01*
X157556184Y-57114609D01*
X157556172Y-57114602D01*
X157410501Y-57054264D01*
X157410489Y-57054261D01*
X157255845Y-57023500D01*
X157255842Y-57023500D01*
X157098158Y-57023500D01*
X157098155Y-57023500D01*
X156943510Y-57054261D01*
X156943498Y-57054264D01*
X156797827Y-57114602D01*
X156797814Y-57114609D01*
X156666711Y-57202210D01*
X156666707Y-57202213D01*
X156555213Y-57313707D01*
X156555210Y-57313711D01*
X156467609Y-57444814D01*
X156467602Y-57444827D01*
X156407264Y-57590498D01*
X156407261Y-57590510D01*
X156376500Y-57745153D01*
X108780000Y-57745153D01*
X108780000Y-50712000D01*
X75124500Y-50712000D01*
X75057461Y-50692315D01*
X75011706Y-50639511D01*
X75000500Y-50588000D01*
X75000500Y-47458153D01*
X146299500Y-47458153D01*
X146299500Y-47615846D01*
X146330261Y-47770489D01*
X146330264Y-47770501D01*
X146390602Y-47916172D01*
X146390609Y-47916185D01*
X146478210Y-48047288D01*
X146478213Y-48047292D01*
X146589707Y-48158786D01*
X146589711Y-48158789D01*
X146720814Y-48246390D01*
X146720827Y-48246397D01*
X146866498Y-48306735D01*
X146866503Y-48306737D01*
X147021153Y-48337499D01*
X147021156Y-48337500D01*
X147021158Y-48337500D01*
X147178844Y-48337500D01*
X147178845Y-48337499D01*
X147333497Y-48306737D01*
X147479179Y-48246394D01*
X147573459Y-48183398D01*
X147640136Y-48162520D01*
X147642350Y-48162500D01*
X147998650Y-48162500D01*
X148065689Y-48182185D01*
X148067541Y-48183398D01*
X148161821Y-48246394D01*
X148161823Y-48246395D01*
X148161827Y-48246397D01*
X148307498Y-48306735D01*
X148307503Y-48306737D01*
X148462153Y-48337499D01*
X148462156Y-48337500D01*
X148462158Y-48337500D01*
X148619844Y-48337500D01*
X148619845Y-48337499D01*
X148774497Y-48306737D01*
X148920179Y-48246394D01*
X149051289Y-48158789D01*
X149162789Y-48047289D01*
X149250394Y-47916179D01*
X149310737Y-47770497D01*
X149341500Y-47615842D01*
X149341500Y-47458158D01*
X149341500Y-47458155D01*
X149341499Y-47458153D01*
X149310738Y-47303510D01*
X149310737Y-47303503D01*
X149310735Y-47303498D01*
X149250397Y-47157827D01*
X149250390Y-47157814D01*
X149162789Y-47026711D01*
X149162786Y-47026707D01*
X149051292Y-46915213D01*
X149051288Y-46915210D01*
X148920185Y-46827609D01*
X148920172Y-46827602D01*
X148774501Y-46767264D01*
X148774489Y-46767261D01*
X148619845Y-46736500D01*
X148619842Y-46736500D01*
X148462158Y-46736500D01*
X148462155Y-46736500D01*
X148307510Y-46767261D01*
X148307498Y-46767264D01*
X148161827Y-46827602D01*
X148161815Y-46827609D01*
X148067541Y-46890602D01*
X148000864Y-46911480D01*
X147998650Y-46911500D01*
X147642350Y-46911500D01*
X147575311Y-46891815D01*
X147573459Y-46890602D01*
X147479184Y-46827609D01*
X147479172Y-46827602D01*
X147333501Y-46767264D01*
X147333489Y-46767261D01*
X147178845Y-46736500D01*
X147178842Y-46736500D01*
X147021158Y-46736500D01*
X147021155Y-46736500D01*
X146866510Y-46767261D01*
X146866498Y-46767264D01*
X146720827Y-46827602D01*
X146720814Y-46827609D01*
X146589711Y-46915210D01*
X146589707Y-46915213D01*
X146478213Y-47026707D01*
X146478210Y-47026711D01*
X146390609Y-47157814D01*
X146390602Y-47157827D01*
X146330264Y-47303498D01*
X146330261Y-47303510D01*
X146299500Y-47458153D01*
X75000500Y-47458153D01*
X75000500Y-42318872D01*
X76749500Y-42318872D01*
X76749500Y-42581127D01*
X76767550Y-42718220D01*
X76783730Y-42841116D01*
X76826303Y-43000000D01*
X76851602Y-43094418D01*
X76851605Y-43094428D01*
X76951953Y-43336690D01*
X76951958Y-43336700D01*
X77083075Y-43563803D01*
X77242718Y-43771851D01*
X77242726Y-43771860D01*
X77428140Y-43957274D01*
X77428148Y-43957281D01*
X77636196Y-44116924D01*
X77863299Y-44248041D01*
X77863309Y-44248046D01*
X78105571Y-44348394D01*
X78105581Y-44348398D01*
X78358884Y-44416270D01*
X78607188Y-44448960D01*
X78615074Y-44449999D01*
X78618880Y-44450500D01*
X78618887Y-44450500D01*
X78881113Y-44450500D01*
X78881120Y-44450500D01*
X79141116Y-44416270D01*
X79394419Y-44348398D01*
X79636697Y-44248043D01*
X79863803Y-44116924D01*
X80071851Y-43957282D01*
X80071855Y-43957277D01*
X80071860Y-43957274D01*
X80257274Y-43771860D01*
X80257277Y-43771855D01*
X80257282Y-43771851D01*
X80416924Y-43563803D01*
X80548043Y-43336697D01*
X80648398Y-43094419D01*
X80716270Y-42841116D01*
X80750500Y-42581120D01*
X80750500Y-42318905D01*
X83416667Y-42318905D01*
X83416667Y-42581094D01*
X83450887Y-42841009D01*
X83450889Y-42841020D01*
X83518742Y-43094255D01*
X83619071Y-43336471D01*
X83619076Y-43336482D01*
X83750155Y-43563516D01*
X83750161Y-43563524D01*
X83836747Y-43676365D01*
X84719954Y-42793158D01*
X84729871Y-42817100D01*
X84814685Y-42944034D01*
X84922633Y-43051982D01*
X85049567Y-43136796D01*
X85073506Y-43146712D01*
X84190300Y-44029917D01*
X84190300Y-44029918D01*
X84303142Y-44116505D01*
X84303150Y-44116511D01*
X84530184Y-44247590D01*
X84530195Y-44247595D01*
X84772411Y-44347924D01*
X85025646Y-44415777D01*
X85025657Y-44415779D01*
X85285572Y-44449999D01*
X85285587Y-44450000D01*
X85547747Y-44450000D01*
X85547761Y-44449999D01*
X85807676Y-44415779D01*
X85807687Y-44415777D01*
X86060922Y-44347924D01*
X86303138Y-44247595D01*
X86303149Y-44247590D01*
X86530183Y-44116511D01*
X86530201Y-44116499D01*
X86643032Y-44029919D01*
X86643032Y-44029917D01*
X85759826Y-43146712D01*
X85783767Y-43136796D01*
X85910701Y-43051982D01*
X86018649Y-42944034D01*
X86103463Y-42817100D01*
X86113379Y-42793160D01*
X86996584Y-43676365D01*
X86996586Y-43676365D01*
X87083166Y-43563534D01*
X87083178Y-43563516D01*
X87214257Y-43336482D01*
X87214262Y-43336471D01*
X87314591Y-43094255D01*
X87382444Y-42841020D01*
X87382446Y-42841009D01*
X87416666Y-42581094D01*
X87416667Y-42581080D01*
X87416667Y-42318919D01*
X87416666Y-42318905D01*
X90083333Y-42318905D01*
X90083333Y-42581094D01*
X90117553Y-42841009D01*
X90117555Y-42841020D01*
X90185408Y-43094255D01*
X90285737Y-43336471D01*
X90285742Y-43336482D01*
X90416821Y-43563516D01*
X90416827Y-43563524D01*
X90503413Y-43676365D01*
X91386620Y-42793158D01*
X91396537Y-42817100D01*
X91481351Y-42944034D01*
X91589299Y-43051982D01*
X91716233Y-43136796D01*
X91740172Y-43146712D01*
X90856966Y-44029917D01*
X90856966Y-44029918D01*
X90969808Y-44116505D01*
X90969816Y-44116511D01*
X91196850Y-44247590D01*
X91196861Y-44247595D01*
X91439077Y-44347924D01*
X91692312Y-44415777D01*
X91692323Y-44415779D01*
X91952238Y-44449999D01*
X91952253Y-44450000D01*
X92214413Y-44450000D01*
X92214427Y-44449999D01*
X92474342Y-44415779D01*
X92474353Y-44415777D01*
X92727588Y-44347924D01*
X92969804Y-44247595D01*
X92969815Y-44247590D01*
X93196849Y-44116511D01*
X93196867Y-44116499D01*
X93309698Y-44029919D01*
X93309698Y-44029917D01*
X92426492Y-43146712D01*
X92450433Y-43136796D01*
X92577367Y-43051982D01*
X92685315Y-42944034D01*
X92770129Y-42817100D01*
X92780045Y-42793160D01*
X93663250Y-43676365D01*
X93663252Y-43676365D01*
X93749832Y-43563534D01*
X93749844Y-43563516D01*
X93880923Y-43336482D01*
X93880928Y-43336471D01*
X93981257Y-43094255D01*
X94049110Y-42841020D01*
X94049112Y-42841009D01*
X94083332Y-42581094D01*
X94083333Y-42581080D01*
X94083333Y-42318912D01*
X94083328Y-42318872D01*
X96749500Y-42318872D01*
X96749500Y-42581127D01*
X96767550Y-42718220D01*
X96783730Y-42841116D01*
X96826303Y-43000000D01*
X96851602Y-43094418D01*
X96851605Y-43094428D01*
X96951953Y-43336690D01*
X96951958Y-43336700D01*
X97083075Y-43563803D01*
X97242718Y-43771851D01*
X97242726Y-43771860D01*
X97428140Y-43957274D01*
X97428148Y-43957281D01*
X97636196Y-44116924D01*
X97863299Y-44248041D01*
X97863309Y-44248046D01*
X98105571Y-44348394D01*
X98105581Y-44348398D01*
X98358884Y-44416270D01*
X98607188Y-44448960D01*
X98615074Y-44449999D01*
X98618880Y-44450500D01*
X98618887Y-44450500D01*
X98881113Y-44450500D01*
X98881120Y-44450500D01*
X99141116Y-44416270D01*
X99394419Y-44348398D01*
X99636697Y-44248043D01*
X99863803Y-44116924D01*
X100071851Y-43957282D01*
X100071855Y-43957277D01*
X100071860Y-43957274D01*
X100257274Y-43771860D01*
X100257277Y-43771855D01*
X100257282Y-43771851D01*
X100416924Y-43563803D01*
X100548043Y-43336697D01*
X100648398Y-43094419D01*
X100716270Y-42841116D01*
X100750500Y-42581120D01*
X100750500Y-42318880D01*
X100716270Y-42058884D01*
X100648398Y-41805581D01*
X100606646Y-41704783D01*
X100548046Y-41563309D01*
X100548041Y-41563299D01*
X100416924Y-41336196D01*
X100272959Y-41148580D01*
X100257282Y-41128149D01*
X100257281Y-41128148D01*
X100257274Y-41128140D01*
X100071860Y-40942726D01*
X100071851Y-40942718D01*
X99863803Y-40783075D01*
X99636700Y-40651958D01*
X99636690Y-40651953D01*
X99394428Y-40551605D01*
X99394421Y-40551603D01*
X99394419Y-40551602D01*
X99141116Y-40483730D01*
X99083339Y-40476123D01*
X98881127Y-40449500D01*
X98881120Y-40449500D01*
X98618880Y-40449500D01*
X98618872Y-40449500D01*
X98387772Y-40479926D01*
X98358884Y-40483730D01*
X98154169Y-40538583D01*
X98105581Y-40551602D01*
X98105571Y-40551605D01*
X97863309Y-40651953D01*
X97863299Y-40651958D01*
X97636196Y-40783075D01*
X97428148Y-40942718D01*
X97242718Y-41128148D01*
X97083075Y-41336196D01*
X96951958Y-41563299D01*
X96951953Y-41563309D01*
X96851605Y-41805571D01*
X96851603Y-41805578D01*
X96851602Y-41805581D01*
X96783730Y-42058884D01*
X96783716Y-42058990D01*
X96749500Y-42318872D01*
X94083328Y-42318872D01*
X94049112Y-42058990D01*
X94049110Y-42058979D01*
X93981257Y-41805744D01*
X93880928Y-41563528D01*
X93880923Y-41563517D01*
X93749844Y-41336483D01*
X93749838Y-41336475D01*
X93663251Y-41223633D01*
X93663250Y-41223633D01*
X92780045Y-42106839D01*
X92770129Y-42082900D01*
X92685315Y-41955966D01*
X92577367Y-41848018D01*
X92450433Y-41763204D01*
X92426491Y-41753286D01*
X93309698Y-40870080D01*
X93196857Y-40783494D01*
X93196849Y-40783488D01*
X92969815Y-40652409D01*
X92969804Y-40652404D01*
X92727588Y-40552075D01*
X92474353Y-40484222D01*
X92474342Y-40484220D01*
X92214427Y-40450000D01*
X91952238Y-40450000D01*
X91692323Y-40484220D01*
X91692312Y-40484222D01*
X91439077Y-40552075D01*
X91196861Y-40652404D01*
X91196850Y-40652409D01*
X90969804Y-40783496D01*
X90856966Y-40870079D01*
X90856966Y-40870080D01*
X91740173Y-41753287D01*
X91716233Y-41763204D01*
X91589299Y-41848018D01*
X91481351Y-41955966D01*
X91396537Y-42082900D01*
X91386620Y-42106840D01*
X90503413Y-41223633D01*
X90503412Y-41223633D01*
X90416829Y-41336471D01*
X90285742Y-41563517D01*
X90285737Y-41563528D01*
X90185408Y-41805744D01*
X90117555Y-42058979D01*
X90117553Y-42058990D01*
X90083333Y-42318905D01*
X87416666Y-42318905D01*
X87382446Y-42058990D01*
X87382444Y-42058979D01*
X87314591Y-41805744D01*
X87214262Y-41563528D01*
X87214257Y-41563517D01*
X87083178Y-41336483D01*
X87083172Y-41336475D01*
X86996585Y-41223633D01*
X86996584Y-41223633D01*
X86113379Y-42106839D01*
X86103463Y-42082900D01*
X86018649Y-41955966D01*
X85910701Y-41848018D01*
X85783767Y-41763204D01*
X85759825Y-41753286D01*
X86643032Y-40870080D01*
X86530191Y-40783494D01*
X86530183Y-40783488D01*
X86303149Y-40652409D01*
X86303138Y-40652404D01*
X86060922Y-40552075D01*
X85807687Y-40484222D01*
X85807676Y-40484220D01*
X85547761Y-40450000D01*
X85285572Y-40450000D01*
X85025657Y-40484220D01*
X85025646Y-40484222D01*
X84772411Y-40552075D01*
X84530195Y-40652404D01*
X84530184Y-40652409D01*
X84303138Y-40783496D01*
X84190300Y-40870079D01*
X84190300Y-40870080D01*
X85073507Y-41753287D01*
X85049567Y-41763204D01*
X84922633Y-41848018D01*
X84814685Y-41955966D01*
X84729871Y-42082900D01*
X84719954Y-42106840D01*
X83836747Y-41223633D01*
X83836746Y-41223633D01*
X83750163Y-41336471D01*
X83619076Y-41563517D01*
X83619071Y-41563528D01*
X83518742Y-41805744D01*
X83450889Y-42058979D01*
X83450887Y-42058990D01*
X83416667Y-42318905D01*
X80750500Y-42318905D01*
X80750500Y-42318880D01*
X80716270Y-42058884D01*
X80648398Y-41805581D01*
X80606646Y-41704783D01*
X80548046Y-41563309D01*
X80548041Y-41563299D01*
X80416924Y-41336196D01*
X80272959Y-41148580D01*
X80257282Y-41128149D01*
X80257281Y-41128148D01*
X80257274Y-41128140D01*
X80071860Y-40942726D01*
X80071851Y-40942718D01*
X79863803Y-40783075D01*
X79636700Y-40651958D01*
X79636690Y-40651953D01*
X79394428Y-40551605D01*
X79394421Y-40551603D01*
X79394419Y-40551602D01*
X79141116Y-40483730D01*
X79083339Y-40476123D01*
X78881127Y-40449500D01*
X78881120Y-40449500D01*
X78618880Y-40449500D01*
X78618872Y-40449500D01*
X78387772Y-40479926D01*
X78358884Y-40483730D01*
X78154169Y-40538583D01*
X78105581Y-40551602D01*
X78105571Y-40551605D01*
X77863309Y-40651953D01*
X77863299Y-40651958D01*
X77636196Y-40783075D01*
X77428148Y-40942718D01*
X77242718Y-41128148D01*
X77083075Y-41336196D01*
X76951958Y-41563299D01*
X76951953Y-41563309D01*
X76851605Y-41805571D01*
X76851603Y-41805578D01*
X76851602Y-41805581D01*
X76783730Y-42058884D01*
X76783716Y-42058990D01*
X76749500Y-42318872D01*
X75000500Y-42318872D01*
X75000500Y-36324500D01*
X75020185Y-36257461D01*
X75072989Y-36211706D01*
X75124500Y-36200500D01*
X105098281Y-36200500D01*
X105165320Y-36220185D01*
G37*
%TD.AperFunction*%
%TA.AperFunction,Conductor*%
G36*
X167916752Y-82164123D02*
G01*
X167973425Y-82204989D01*
X167999006Y-82270007D01*
X167999500Y-82281060D01*
X167999500Y-85075500D01*
X167979815Y-85142539D01*
X167927011Y-85188294D01*
X167875500Y-85199500D01*
X165081061Y-85199500D01*
X165014022Y-85179815D01*
X164968267Y-85127011D01*
X164958323Y-85057853D01*
X164987348Y-84994297D01*
X165046126Y-84956523D01*
X165056870Y-84953883D01*
X165302781Y-84904969D01*
X165302792Y-84904966D01*
X165613078Y-84810842D01*
X165912635Y-84686761D01*
X165912640Y-84686759D01*
X166198580Y-84533920D01*
X166198598Y-84533909D01*
X166468170Y-84353787D01*
X166468183Y-84353777D01*
X166650554Y-84204108D01*
X166650554Y-84204107D01*
X165440698Y-82994251D01*
X165542330Y-82920412D01*
X165720412Y-82742330D01*
X165794251Y-82640698D01*
X167004107Y-83850554D01*
X167004108Y-83850554D01*
X167153777Y-83668183D01*
X167153787Y-83668170D01*
X167333909Y-83398598D01*
X167333920Y-83398580D01*
X167486759Y-83112640D01*
X167486761Y-83112635D01*
X167610842Y-82813078D01*
X167704966Y-82502792D01*
X167704969Y-82502781D01*
X167753883Y-82256869D01*
X167786267Y-82194958D01*
X167846983Y-82160384D01*
X167916752Y-82164123D01*
G37*
%TD.AperFunction*%
%TA.AperFunction,Conductor*%
G36*
X167942539Y-36220185D02*
G01*
X167988294Y-36272989D01*
X167999500Y-36324500D01*
X167999500Y-39118939D01*
X167979815Y-39185978D01*
X167927011Y-39231733D01*
X167857853Y-39241677D01*
X167794297Y-39212652D01*
X167756523Y-39153874D01*
X167753883Y-39143130D01*
X167704969Y-38897218D01*
X167704966Y-38897207D01*
X167610842Y-38586921D01*
X167486761Y-38287364D01*
X167486759Y-38287359D01*
X167333920Y-38001419D01*
X167333909Y-38001401D01*
X167153787Y-37731829D01*
X167153777Y-37731815D01*
X167004108Y-37549444D01*
X167004107Y-37549443D01*
X165794250Y-38759300D01*
X165720412Y-38657670D01*
X165542330Y-38479588D01*
X165440697Y-38405747D01*
X166650555Y-37195891D01*
X166650554Y-37195890D01*
X166468184Y-37046222D01*
X166468170Y-37046212D01*
X166198598Y-36866090D01*
X166198580Y-36866079D01*
X165912640Y-36713240D01*
X165912635Y-36713238D01*
X165613078Y-36589157D01*
X165302792Y-36495033D01*
X165302781Y-36495030D01*
X165056870Y-36446117D01*
X164994959Y-36413733D01*
X164960385Y-36353017D01*
X164964124Y-36283247D01*
X165004990Y-36226575D01*
X165070008Y-36200994D01*
X165081061Y-36200500D01*
X167875500Y-36200500D01*
X167942539Y-36220185D01*
G37*
%TD.AperFunction*%
%TD*%
M02*
