M48
; DRILL file {KiCad 9.0.0} date 2025-04-21T22:06:35+0200
; FORMAT={-:-/ absolute / inch / decimal}
; #@! TF.CreationDate,2025-04-21T22:06:35+02:00
; #@! TF.GenerationSoftware,Kicad,Pcbnew,9.0.0
; #@! TF.FileFunction,Plated,1,2,PTH
FMAT,2
INCH
; #@! TA.AperFunction,Plated,PTH,ViaDrill
T1C0.0118
; #@! TA.AperFunction,Plated,PTH,ComponentDrill
T2C0.0280
; #@! TA.AperFunction,Plated,PTH,ComponentDrill
T3C0.0315
; #@! TA.AperFunction,Plated,PTH,ComponentDrill
T4C0.0354
; #@! TA.AperFunction,Plated,PTH,ComponentDrill
T5C0.0394
; #@! TA.AperFunction,Plated,PTH,ComponentDrill
T6C0.0610
; #@! TA.AperFunction,Plated,PTH,ComponentDrill
T7C0.0689
; #@! TA.AperFunction,Plated,PTH,ComponentDrill
T8C0.1260
%
G90
G05
T1
X4.4731Y-2.3165
X4.4831Y-1.5165
X4.6331Y-1.5165
X4.6331Y-2.3165
X4.8331Y-2.3165
X4.8331Y-3.2515
X4.8431Y-1.5165
X4.8531Y-3.2165
X4.9931Y-3.1765
X4.9939Y-1.5157
X5.0031Y-2.3165
X5.1331Y-3.1715
X5.1581Y-2.2665
X5.2431Y-2.2615
X5.3281Y-2.2665
X5.3386Y-2.7087
X5.3431Y-1.9665
X5.3931Y-2.6815
X5.4031Y-1.4765
X5.4081Y-2.2565
X5.4796Y-2.5165
X5.4881Y-3.0315
X5.5031Y-1.7215
X5.5118Y-2.5472
X5.5396Y-2.5165
X5.5631Y-2.1115
X5.5681Y-1.7665
X5.5931Y-1.7115
X5.6181Y-2.5865
X5.6781Y-1.7065
X5.7131Y-2.8665
X5.7531Y-2.6865
X5.7581Y-1.7065
X5.7631Y-2.8315
X5.7913Y-1.8715
X5.8331Y-2.0965
X5.8481Y-1.8715
X5.8581Y-2.1365
X5.8981Y-2.3915
X6.0381Y-2.2465
X6.0381Y-2.7465
X6.1881Y-2.2765
X6.2181Y-2.9665
X6.2731Y-3.0965
X6.3831Y-2.6115
X6.3931Y-3.0115
X6.4981Y-2.8315
T2
X3.6327Y-2.795
X3.8335Y-2.858
T3
X3.1554Y-2.799
X3.4507Y-2.8541
T4
X6.0565Y-1.5984
X6.1565Y-1.5984
T5
X5.3002Y-3.2677
X5.4002Y-3.2677
X5.5766Y-3.2717
X5.6766Y-3.2717
X5.7766Y-3.2717
X6.5433Y-2.1913
X6.5433Y-2.2913
T6
X3.1004Y-1.6713
X3.1004Y-2.4587
X3.3629Y-1.6713
X3.6253Y-1.6713
X3.8878Y-1.6713
X3.8878Y-2.4587
T7
X3.1303Y-3.0465
X3.1303Y-3.2591
T8
X4.1929Y-1.5531
X4.1929Y-3.2165
X6.4764Y-1.563
X6.4764Y-3.2165
M30
