%TF.GenerationSoftware,KiCad,Pcbnew,9.0.0*%
%TF.CreationDate,2025-04-21T22:06:35+02:00*%
%TF.ProjectId,RIAA_preamp,52494141-5f70-4726-9561-6d702e6b6963,rev?*%
%TF.SameCoordinates,Original*%
%TF.FileFunction,Copper,L1,Top*%
%TF.FilePolarity,Positive*%
%FSLAX46Y46*%
G04 Gerber Fmt 4.6, Leading zero omitted, Abs format (unit mm)*
G04 Created by KiCad (PCBNEW 9.0.0) date 2025-04-21 22:06:35*
%MOMM*%
%LPD*%
G01*
G04 APERTURE LIST*
G04 Aperture macros list*
%AMRoundRect*
0 Rectangle with rounded corners*
0 $1 Rounding radius*
0 $2 $3 $4 $5 $6 $7 $8 $9 X,Y pos of 4 corners*
0 Add a 4 corners polygon primitive as box body*
4,1,4,$2,$3,$4,$5,$6,$7,$8,$9,$2,$3,0*
0 Add four circle primitives for the rounded corners*
1,1,$1+$1,$2,$3*
1,1,$1+$1,$4,$5*
1,1,$1+$1,$6,$7*
1,1,$1+$1,$8,$9*
0 Add four rect primitives between the rounded corners*
20,1,$1+$1,$2,$3,$4,$5,0*
20,1,$1+$1,$4,$5,$6,$7,0*
20,1,$1+$1,$6,$7,$8,$9,0*
20,1,$1+$1,$8,$9,$2,$3,0*%
G04 Aperture macros list end*
%TA.AperFunction,ComponentPad*%
%ADD10C,1.270000*%
%TD*%
%TA.AperFunction,ComponentPad*%
%ADD11RoundRect,0.250000X1.125000X-1.125000X1.125000X1.125000X-1.125000X1.125000X-1.125000X-1.125000X0*%
%TD*%
%TA.AperFunction,ComponentPad*%
%ADD12C,2.750000*%
%TD*%
%TA.AperFunction,ComponentPad*%
%ADD13O,1.700000X1.700000*%
%TD*%
%TA.AperFunction,ComponentPad*%
%ADD14R,1.700000X1.700000*%
%TD*%
%TA.AperFunction,SMDPad,CuDef*%
%ADD15RoundRect,0.200000X0.275000X-0.200000X0.275000X0.200000X-0.275000X0.200000X-0.275000X-0.200000X0*%
%TD*%
%TA.AperFunction,SMDPad,CuDef*%
%ADD16RoundRect,0.250000X0.250000X0.475000X-0.250000X0.475000X-0.250000X-0.475000X0.250000X-0.475000X0*%
%TD*%
%TA.AperFunction,SMDPad,CuDef*%
%ADD17RoundRect,0.200000X-0.275000X0.200000X-0.275000X-0.200000X0.275000X-0.200000X0.275000X0.200000X0*%
%TD*%
%TA.AperFunction,ComponentPad*%
%ADD18C,5.600000*%
%TD*%
%TA.AperFunction,SMDPad,CuDef*%
%ADD19RoundRect,0.150000X-0.150000X0.825000X-0.150000X-0.825000X0.150000X-0.825000X0.150000X0.825000X0*%
%TD*%
%TA.AperFunction,SMDPad,CuDef*%
%ADD20RoundRect,0.225000X0.250000X-0.225000X0.250000X0.225000X-0.250000X0.225000X-0.250000X-0.225000X0*%
%TD*%
%TA.AperFunction,SMDPad,CuDef*%
%ADD21RoundRect,0.250000X-0.250000X-0.475000X0.250000X-0.475000X0.250000X0.475000X-0.250000X0.475000X0*%
%TD*%
%TA.AperFunction,SMDPad,CuDef*%
%ADD22RoundRect,0.200000X-0.200000X-0.275000X0.200000X-0.275000X0.200000X0.275000X-0.200000X0.275000X0*%
%TD*%
%TA.AperFunction,SMDPad,CuDef*%
%ADD23RoundRect,0.225000X-0.225000X-0.250000X0.225000X-0.250000X0.225000X0.250000X-0.225000X0.250000X0*%
%TD*%
%TA.AperFunction,SMDPad,CuDef*%
%ADD24RoundRect,0.112500X-0.112500X0.187500X-0.112500X-0.187500X0.112500X-0.187500X0.112500X0.187500X0*%
%TD*%
%TA.AperFunction,SMDPad,CuDef*%
%ADD25RoundRect,0.225000X-0.250000X0.225000X-0.250000X-0.225000X0.250000X-0.225000X0.250000X0.225000X0*%
%TD*%
%TA.AperFunction,SMDPad,CuDef*%
%ADD26RoundRect,0.250000X0.475000X-0.250000X0.475000X0.250000X-0.475000X0.250000X-0.475000X-0.250000X0*%
%TD*%
%TA.AperFunction,SMDPad,CuDef*%
%ADD27RoundRect,0.225000X0.225000X0.250000X-0.225000X0.250000X-0.225000X-0.250000X0.225000X-0.250000X0*%
%TD*%
%TA.AperFunction,SMDPad,CuDef*%
%ADD28RoundRect,0.250000X-0.475000X0.250000X-0.475000X-0.250000X0.475000X-0.250000X0.475000X0.250000X0*%
%TD*%
%TA.AperFunction,SMDPad,CuDef*%
%ADD29RoundRect,0.250000X-1.000000X1.950000X-1.000000X-1.950000X1.000000X-1.950000X1.000000X1.950000X0*%
%TD*%
%TA.AperFunction,SMDPad,CuDef*%
%ADD30RoundRect,0.200000X0.200000X0.275000X-0.200000X0.275000X-0.200000X-0.275000X0.200000X-0.275000X0*%
%TD*%
%TA.AperFunction,ComponentPad*%
%ADD31C,1.800000*%
%TD*%
%TA.AperFunction,ComponentPad*%
%ADD32R,1.800000X1.800000*%
%TD*%
%TA.AperFunction,SMDPad,CuDef*%
%ADD33RoundRect,0.112500X-0.187500X-0.112500X0.187500X-0.112500X0.187500X0.112500X-0.187500X0.112500X0*%
%TD*%
%TA.AperFunction,SMDPad,CuDef*%
%ADD34RoundRect,0.150000X-0.825000X-0.150000X0.825000X-0.150000X0.825000X0.150000X-0.825000X0.150000X0*%
%TD*%
%TA.AperFunction,SMDPad,CuDef*%
%ADD35RoundRect,0.250000X0.850000X0.350000X-0.850000X0.350000X-0.850000X-0.350000X0.850000X-0.350000X0*%
%TD*%
%TA.AperFunction,SMDPad,CuDef*%
%ADD36RoundRect,0.250000X1.275000X1.125000X-1.275000X1.125000X-1.275000X-1.125000X1.275000X-1.125000X0*%
%TD*%
%TA.AperFunction,SMDPad,CuDef*%
%ADD37RoundRect,0.249997X2.950003X2.650003X-2.950003X2.650003X-2.950003X-2.650003X2.950003X-2.650003X0*%
%TD*%
%TA.AperFunction,SMDPad,CuDef*%
%ADD38RoundRect,0.200000X-0.300000X-0.200000X0.300000X-0.200000X0.300000X0.200000X-0.300000X0.200000X0*%
%TD*%
%TA.AperFunction,ComponentPad*%
%ADD39C,3.000000*%
%TD*%
%TA.AperFunction,SMDPad,CuDef*%
%ADD40RoundRect,0.112500X0.187500X0.112500X-0.187500X0.112500X-0.187500X-0.112500X0.187500X-0.112500X0*%
%TD*%
%TA.AperFunction,SMDPad,CuDef*%
%ADD41RoundRect,0.250000X-0.850000X-0.350000X0.850000X-0.350000X0.850000X0.350000X-0.850000X0.350000X0*%
%TD*%
%TA.AperFunction,SMDPad,CuDef*%
%ADD42RoundRect,0.250000X-1.275000X-1.125000X1.275000X-1.125000X1.275000X1.125000X-1.275000X1.125000X0*%
%TD*%
%TA.AperFunction,SMDPad,CuDef*%
%ADD43RoundRect,0.249997X-2.950003X-2.650003X2.950003X-2.650003X2.950003X2.650003X-2.950003X2.650003X0*%
%TD*%
%TA.AperFunction,ViaPad*%
%ADD44C,0.600000*%
%TD*%
%TA.AperFunction,Conductor*%
%ADD45C,0.250000*%
%TD*%
%TA.AperFunction,Conductor*%
%ADD46C,0.400000*%
%TD*%
%TA.AperFunction,Conductor*%
%ADD47C,0.200000*%
%TD*%
%TA.AperFunction,Conductor*%
%ADD48C,0.800000*%
%TD*%
G04 APERTURE END LIST*
D10*
%TO.P,F1,1*%
%TO.N,LINE*%
X97370000Y-72594000D03*
%TO.P,F1,2*%
%TO.N,Net-(F1-Pad2)*%
X92270000Y-70994000D03*
%TD*%
D11*
%TO.P,J4,1,Pin_1*%
%TO.N,LINE*%
X79509000Y-82782000D03*
D12*
%TO.P,J4,2,Pin_2*%
%TO.N,NEUT*%
X79509000Y-77382000D03*
%TD*%
D13*
%TO.P,J3,3,Pin_3*%
%TO.N,GND*%
X141645000Y-83100000D03*
%TO.P,J3,2,Pin_2*%
%TO.N,/OUTR*%
X144185000Y-83100000D03*
D14*
%TO.P,J3,1,Pin_1*%
%TO.N,/OUTL*%
X146725000Y-83100000D03*
%TD*%
D15*
%TO.P,R28,2*%
%TO.N,Net-(C32-Pad1)*%
X145670500Y-69382000D03*
%TO.P,R28,1*%
%TO.N,GND*%
X145670500Y-71032000D03*
%TD*%
D16*
%TO.P,C58,2*%
%TO.N,Net-(U1B--)*%
X159050000Y-70085000D03*
%TO.P,C58,1*%
%TO.N,Net-(C41-Pad1)*%
X160950000Y-70085000D03*
%TD*%
D17*
%TO.P,R9,2*%
%TO.N,Net-(C21-Pad2)*%
X164100000Y-52210000D03*
%TO.P,R9,1*%
%TO.N,Net-(R7-Pad2)*%
X164100000Y-50560000D03*
%TD*%
D18*
%TO.P,H2,1,1*%
%TO.N,GND*%
X106500000Y-81700000D03*
%TD*%
D19*
%TO.P,U1,8,V+*%
%TO.N,+15V*%
X161305000Y-67760000D03*
%TO.P,U1,7*%
%TO.N,Net-(U1B--)*%
X160035000Y-67760000D03*
%TO.P,U1,6,-*%
X158765000Y-67760000D03*
%TO.P,U1,5,+*%
%TO.N,Net-(U1B-+)*%
X157495000Y-67760000D03*
%TO.P,U1,4,V-*%
%TO.N,-15V*%
X157495000Y-62810000D03*
%TO.P,U1,3,+*%
%TO.N,Net-(U1A-+)*%
X158765000Y-62810000D03*
%TO.P,U1,2,-*%
%TO.N,Net-(U1A--)*%
X160035000Y-62810000D03*
%TO.P,U1,1*%
%TO.N,Net-(C21-Pad2)*%
X161305000Y-62810000D03*
%TD*%
D20*
%TO.P,C74,1*%
%TO.N,Net-(C74-Pad1)*%
X152900000Y-55135000D03*
%TO.P,C74,2*%
%TO.N,GND*%
X152900000Y-53585000D03*
%TD*%
D21*
%TO.P,C33,1*%
%TO.N,Net-(C33-Pad1)*%
X162550000Y-70085000D03*
%TO.P,C33,2*%
%TO.N,Net-(C31-Pad2)*%
X164450000Y-70085000D03*
%TD*%
D22*
%TO.P,R14,1*%
%TO.N,Net-(C17-Pad2)*%
X133250000Y-65800000D03*
%TO.P,R14,2*%
%TO.N,Net-(R14-Pad2)*%
X134900000Y-65800000D03*
%TD*%
D21*
%TO.P,C23,1*%
%TO.N,Net-(C11-Pad2)*%
X160650000Y-54335000D03*
%TO.P,C23,2*%
%TO.N,Net-(C21-Pad2)*%
X162550000Y-54335000D03*
%TD*%
D16*
%TO.P,C28,1*%
%TO.N,Net-(C28-Pad1)*%
X144950000Y-67500000D03*
%TO.P,C28,2*%
%TO.N,Net-(C24-Pad1)*%
X143050000Y-67500000D03*
%TD*%
D23*
%TO.P,C79,1*%
%TO.N,Net-(C73-Pad1)*%
X120100000Y-77418334D03*
%TO.P,C79,2*%
%TO.N,GND*%
X121650000Y-77418334D03*
%TD*%
D21*
%TO.P,C21,1*%
%TO.N,Net-(C11-Pad2)*%
X160650000Y-52315000D03*
%TO.P,C21,2*%
%TO.N,Net-(C21-Pad2)*%
X162550000Y-52315000D03*
%TD*%
D23*
%TO.P,C11,1*%
%TO.N,Net-(U1A--)*%
X157525000Y-55110000D03*
%TO.P,C11,2*%
%TO.N,Net-(C11-Pad2)*%
X159075000Y-55110000D03*
%TD*%
%TO.P,C87,1*%
%TO.N,Net-(C73-Pad1)*%
X120100000Y-80531667D03*
%TO.P,C87,2*%
%TO.N,GND*%
X121650000Y-80531667D03*
%TD*%
D17*
%TO.P,R19,1*%
%TO.N,Net-(R17-Pad2)*%
X164500000Y-66610000D03*
%TO.P,R19,2*%
%TO.N,Net-(C31-Pad2)*%
X164500000Y-68260000D03*
%TD*%
D24*
%TO.P,D2,1,K*%
%TO.N,Net-(D1-+)*%
X130900000Y-46950000D03*
%TO.P,D2,2,A*%
%TO.N,+15V*%
X130900000Y-49050000D03*
%TD*%
D25*
%TO.P,C93,1*%
%TO.N,Net-(C74-Pad1)*%
X148211666Y-50485000D03*
%TO.P,C93,2*%
%TO.N,GND*%
X148211666Y-52035000D03*
%TD*%
D15*
%TO.P,R6,1*%
%TO.N,Net-(C10-Pad2)*%
X120140000Y-69525000D03*
%TO.P,R6,2*%
%TO.N,Net-(R6-Pad2)*%
X120140000Y-67875000D03*
%TD*%
D26*
%TO.P,C44,1*%
%TO.N,GND*%
X146314700Y-42400000D03*
%TO.P,C44,2*%
%TO.N,-15V*%
X146314700Y-40500000D03*
%TD*%
%TO.P,C42,1*%
%TO.N,GND*%
X142125000Y-42400000D03*
%TO.P,C42,2*%
%TO.N,-15V*%
X142125000Y-40500000D03*
%TD*%
D27*
%TO.P,C73,1*%
%TO.N,Net-(C73-Pad1)*%
X124750000Y-77400000D03*
%TO.P,C73,2*%
%TO.N,GND*%
X123200000Y-77400000D03*
%TD*%
D21*
%TO.P,C38,1*%
%TO.N,Net-(C11-Pad2)*%
X160650000Y-60395000D03*
%TO.P,C38,2*%
%TO.N,Net-(C21-Pad2)*%
X162550000Y-60395000D03*
%TD*%
D28*
%TO.P,C52,1*%
%TO.N,/Left/IN*%
X154100000Y-58785000D03*
%TO.P,C52,2*%
%TO.N,Net-(U1A-+)*%
X154100000Y-60685000D03*
%TD*%
D20*
%TO.P,C76,1*%
%TO.N,Net-(C74-Pad1)*%
X156013333Y-55135000D03*
%TO.P,C76,2*%
%TO.N,GND*%
X156013333Y-53585000D03*
%TD*%
%TO.P,C95,1*%
%TO.N,Net-(C74-Pad1)*%
X151343333Y-55135000D03*
%TO.P,C95,2*%
%TO.N,GND*%
X151343333Y-53585000D03*
%TD*%
D29*
%TO.P,C37,1*%
%TO.N,GND*%
X125000000Y-38500000D03*
%TO.P,C37,2*%
%TO.N,Net-(D1--)*%
X125000000Y-45900000D03*
%TD*%
D23*
%TO.P,C88,1*%
%TO.N,Net-(C73-Pad1)*%
X120100000Y-82088334D03*
%TO.P,C88,2*%
%TO.N,GND*%
X121650000Y-82088334D03*
%TD*%
D21*
%TO.P,C51,1*%
%TO.N,/Right/IN*%
X128400000Y-76200000D03*
%TO.P,C51,2*%
%TO.N,Net-(U5A-+)*%
X130300000Y-76200000D03*
%TD*%
D20*
%TO.P,C1,1*%
%TO.N,/Left/IN*%
X150700000Y-58710000D03*
%TO.P,C1,2*%
%TO.N,GND*%
X150700000Y-57160000D03*
%TD*%
D25*
%TO.P,C92,1*%
%TO.N,Net-(C74-Pad1)*%
X149768333Y-50485000D03*
%TO.P,C92,2*%
%TO.N,GND*%
X149768333Y-52035000D03*
%TD*%
D23*
%TO.P,C77,1*%
%TO.N,Net-(C73-Pad1)*%
X120100000Y-75861667D03*
%TO.P,C77,2*%
%TO.N,GND*%
X121650000Y-75861667D03*
%TD*%
D26*
%TO.P,C43,1*%
%TO.N,GND*%
X131075000Y-56350000D03*
%TO.P,C43,2*%
%TO.N,+15V*%
X131075000Y-54450000D03*
%TD*%
D29*
%TO.P,C4,1*%
%TO.N,Net-(D1-+)*%
X115700000Y-51400000D03*
%TO.P,C4,2*%
%TO.N,GND*%
X115700000Y-58800000D03*
%TD*%
D23*
%TO.P,C7,1*%
%TO.N,Net-(U1A--)*%
X157525000Y-52060000D03*
%TO.P,C7,2*%
%TO.N,Net-(C11-Pad2)*%
X159075000Y-52060000D03*
%TD*%
D30*
%TO.P,R11,1*%
%TO.N,Net-(U5A--)*%
X121725000Y-74300000D03*
%TO.P,R11,2*%
%TO.N,Net-(R11-Pad2)*%
X120075000Y-74300000D03*
%TD*%
D21*
%TO.P,C30,1*%
%TO.N,Net-(U5B-+)*%
X140950000Y-74600000D03*
%TO.P,C30,2*%
%TO.N,Net-(C28-Pad1)*%
X142850000Y-74600000D03*
%TD*%
D31*
%TO.P,RV1,1*%
%TO.N,Net-(F1-Pad2)*%
X87648000Y-72494000D03*
%TO.P,RV1,2*%
%TO.N,NEUT*%
X80148000Y-71094000D03*
%TD*%
D32*
%TO.P,D5,1,K*%
%TO.N,-15V*%
X156375000Y-40600000D03*
D31*
%TO.P,D5,2,A*%
%TO.N,Net-(D5-A)*%
X153835000Y-40600000D03*
%TD*%
D15*
%TO.P,R26,1*%
%TO.N,GND*%
X139400000Y-75925000D03*
%TO.P,R26,2*%
%TO.N,Net-(U5B-+)*%
X139400000Y-74275000D03*
%TD*%
D18*
%TO.P,H1,1,1*%
%TO.N,GND*%
X106500000Y-39450000D03*
%TD*%
D20*
%TO.P,C6,1*%
%TO.N,Net-(U5A--)*%
X121675000Y-72775000D03*
%TO.P,C6,2*%
%TO.N,Net-(C10-Pad2)*%
X121675000Y-71225000D03*
%TD*%
D26*
%TO.P,C46,1*%
%TO.N,GND*%
X144219850Y-42400000D03*
%TO.P,C46,2*%
%TO.N,-15V*%
X144219850Y-40500000D03*
%TD*%
D33*
%TO.P,D4,1,K*%
%TO.N,GND*%
X136725000Y-38050000D03*
%TO.P,D4,2,A*%
%TO.N,-15V*%
X138825000Y-38050000D03*
%TD*%
D27*
%TO.P,C91,1*%
%TO.N,Net-(C73-Pad1)*%
X124750000Y-75843334D03*
%TO.P,C91,2*%
%TO.N,GND*%
X123200000Y-75843334D03*
%TD*%
D26*
%TO.P,C25,1*%
%TO.N,Net-(C25-Pad1)*%
X104345000Y-53567000D03*
%TO.P,C25,2*%
%TO.N,Net-(C25-Pad2)*%
X104345000Y-51667000D03*
%TD*%
D20*
%TO.P,C94,1*%
%TO.N,Net-(C74-Pad1)*%
X149786666Y-55135000D03*
%TO.P,C94,2*%
%TO.N,GND*%
X149786666Y-53585000D03*
%TD*%
D30*
%TO.P,R5,1*%
%TO.N,Net-(U1A-+)*%
X152425000Y-60735000D03*
%TO.P,R5,2*%
%TO.N,GND*%
X150775000Y-60735000D03*
%TD*%
D24*
%TO.P,D3,1,K*%
%TO.N,+15V*%
X137400000Y-54300000D03*
%TO.P,D3,2,A*%
%TO.N,GND*%
X137400000Y-56400000D03*
%TD*%
D22*
%TO.P,R16,1*%
%TO.N,Net-(R14-Pad2)*%
X136225000Y-65800000D03*
%TO.P,R16,2*%
%TO.N,Net-(C22-Pad2)*%
X137875000Y-65800000D03*
%TD*%
D21*
%TO.P,C27,1*%
%TO.N,Net-(C11-Pad2)*%
X160650000Y-56355000D03*
%TO.P,C27,2*%
%TO.N,Net-(C21-Pad2)*%
X162550000Y-56355000D03*
%TD*%
D15*
%TO.P,R33,1*%
%TO.N,Net-(C25-Pad1)*%
X106377000Y-53188000D03*
%TO.P,R33,2*%
%TO.N,Net-(D1-Pad2)*%
X106377000Y-51538000D03*
%TD*%
D27*
%TO.P,C75,1*%
%TO.N,Net-(C73-Pad1)*%
X124750000Y-74286667D03*
%TO.P,C75,2*%
%TO.N,GND*%
X123200000Y-74286667D03*
%TD*%
D20*
%TO.P,C96,1*%
%TO.N,Net-(C74-Pad1)*%
X154456666Y-55135000D03*
%TO.P,C96,2*%
%TO.N,GND*%
X154456666Y-53585000D03*
%TD*%
D18*
%TO.P,H4,1,1*%
%TO.N,GND*%
X164500000Y-81700000D03*
%TD*%
D30*
%TO.P,R32,1*%
%TO.N,Net-(D5-A)*%
X151050000Y-42115000D03*
%TO.P,R32,2*%
%TO.N,+15V*%
X149400000Y-42115000D03*
%TD*%
D25*
%TO.P,C78,1*%
%TO.N,Net-(C74-Pad1)*%
X154438333Y-50485000D03*
%TO.P,C78,2*%
%TO.N,GND*%
X154438333Y-52035000D03*
%TD*%
D20*
%TO.P,C12,1*%
%TO.N,Net-(U5A--)*%
X126250000Y-72775000D03*
%TO.P,C12,2*%
%TO.N,Net-(C10-Pad2)*%
X126250000Y-71225000D03*
%TD*%
%TO.P,C8,1*%
%TO.N,Net-(U5A--)*%
X123200000Y-72775000D03*
%TO.P,C8,2*%
%TO.N,Net-(C10-Pad2)*%
X123200000Y-71225000D03*
%TD*%
D34*
%TO.P,U5,1*%
%TO.N,Net-(C17-Pad2)*%
X132425000Y-68995000D03*
%TO.P,U5,2,-*%
%TO.N,Net-(U5A--)*%
X132425000Y-70265000D03*
%TO.P,U5,3,+*%
%TO.N,Net-(U5A-+)*%
X132425000Y-71535000D03*
%TO.P,U5,4,V-*%
%TO.N,-15V*%
X132425000Y-72805000D03*
%TO.P,U5,5,+*%
%TO.N,Net-(U5B-+)*%
X137375000Y-72805000D03*
%TO.P,U5,6,-*%
%TO.N,Net-(U5B--)*%
X137375000Y-71535000D03*
%TO.P,U5,7*%
X137375000Y-70265000D03*
%TO.P,U5,8,V+*%
%TO.N,+15V*%
X137375000Y-68995000D03*
%TD*%
D35*
%TO.P,U4,1,GND*%
%TO.N,GND*%
X139700000Y-44905000D03*
D36*
%TO.P,U4,2,VI*%
%TO.N,Net-(D1--)*%
X135075000Y-44150000D03*
X135075000Y-41100000D03*
D37*
X133400000Y-42625000D03*
D36*
X131725000Y-44150000D03*
X131725000Y-41100000D03*
D35*
%TO.P,U4,3,VO*%
%TO.N,-15V*%
X139700000Y-40345000D03*
%TD*%
D15*
%TO.P,R30,1*%
%TO.N,/OUTR*%
X147271000Y-71032000D03*
%TO.P,R30,2*%
%TO.N,Net-(C32-Pad1)*%
X147271000Y-69382000D03*
%TD*%
D22*
%TO.P,R29,1*%
%TO.N,GND*%
X154375000Y-69785000D03*
%TO.P,R29,2*%
%TO.N,Net-(U1B-+)*%
X156025000Y-69785000D03*
%TD*%
D17*
%TO.P,R17,1*%
%TO.N,Net-(C21-Pad2)*%
X164500000Y-63635000D03*
%TO.P,R17,2*%
%TO.N,Net-(R17-Pad2)*%
X164500000Y-65285000D03*
%TD*%
D15*
%TO.P,R12,1*%
%TO.N,Net-(R11-Pad2)*%
X120150000Y-72850000D03*
%TO.P,R12,2*%
%TO.N,Net-(C10-Pad2)*%
X120150000Y-71200000D03*
%TD*%
D22*
%TO.P,R36,1*%
%TO.N,/OUTL*%
X159375000Y-75985000D03*
%TO.P,R36,2*%
%TO.N,Net-(C41-Pad1)*%
X161025000Y-75985000D03*
%TD*%
D27*
%TO.P,C5,1*%
%TO.N,/Right/IN*%
X128325000Y-79600000D03*
%TO.P,C5,2*%
%TO.N,GND*%
X126775000Y-79600000D03*
%TD*%
D26*
%TO.P,C17,1*%
%TO.N,Net-(C10-Pad2)*%
X121930000Y-69650000D03*
%TO.P,C17,2*%
%TO.N,Net-(C17-Pad2)*%
X121930000Y-67750000D03*
%TD*%
D18*
%TO.P,H3,1,1*%
%TO.N,GND*%
X164500000Y-39700000D03*
%TD*%
D17*
%TO.P,R27,1*%
%TO.N,Net-(U1B--)*%
X157500000Y-69760000D03*
%TO.P,R27,2*%
%TO.N,Net-(R25-Pad1)*%
X157500000Y-71410000D03*
%TD*%
D23*
%TO.P,C13,1*%
%TO.N,Net-(U1A--)*%
X157525000Y-56635000D03*
%TO.P,C13,2*%
%TO.N,Net-(C11-Pad2)*%
X159075000Y-56635000D03*
%TD*%
D26*
%TO.P,C39,1*%
%TO.N,Net-(C39-Pad1)*%
X162800000Y-75335000D03*
%TO.P,C39,2*%
%TO.N,Net-(C33-Pad1)*%
X162800000Y-73435000D03*
%TD*%
D28*
%TO.P,C50,1*%
%TO.N,/Left/IN*%
X156200000Y-58785000D03*
%TO.P,C50,2*%
%TO.N,Net-(U1A-+)*%
X156200000Y-60685000D03*
%TD*%
D26*
%TO.P,C19,1*%
%TO.N,Net-(C10-Pad2)*%
X125970000Y-69650000D03*
%TO.P,C19,2*%
%TO.N,Net-(C17-Pad2)*%
X125970000Y-67750000D03*
%TD*%
D38*
%TO.P,D1,1*%
%TO.N,Net-(C25-Pad2)*%
X103825000Y-46630000D03*
%TO.P,D1,2*%
%TO.N,Net-(D1-Pad2)*%
X103825000Y-49170000D03*
%TO.P,D1,3,+*%
%TO.N,Net-(D1-+)*%
X109975000Y-49170000D03*
%TO.P,D1,4,-*%
%TO.N,Net-(D1--)*%
X109975000Y-46630000D03*
%TD*%
D26*
%TO.P,C47,1*%
%TO.N,GND*%
X135300000Y-56350000D03*
%TO.P,C47,2*%
%TO.N,+15V*%
X135300000Y-54450000D03*
%TD*%
%TO.P,C45,1*%
%TO.N,GND*%
X133200000Y-56350000D03*
%TO.P,C45,2*%
%TO.N,+15V*%
X133200000Y-54450000D03*
%TD*%
D23*
%TO.P,C9,1*%
%TO.N,Net-(U1A--)*%
X157525000Y-53585000D03*
%TO.P,C9,2*%
%TO.N,Net-(C11-Pad2)*%
X159075000Y-53585000D03*
%TD*%
D26*
%TO.P,C20,1*%
%TO.N,Net-(C10-Pad2)*%
X127990000Y-69650000D03*
%TO.P,C20,2*%
%TO.N,Net-(C17-Pad2)*%
X127990000Y-67750000D03*
%TD*%
D28*
%TO.P,C54,1*%
%TO.N,/Left/IN*%
X158200000Y-58785000D03*
%TO.P,C54,2*%
%TO.N,Net-(U1A-+)*%
X158200000Y-60685000D03*
%TD*%
D29*
%TO.P,C3,1*%
%TO.N,Net-(D1-+)*%
X125000000Y-51400000D03*
%TO.P,C3,2*%
%TO.N,GND*%
X125000000Y-58800000D03*
%TD*%
D14*
%TO.P,J2,1,Pin_1*%
%TO.N,/Right/IN*%
X134625000Y-83000000D03*
D13*
%TO.P,J2,2,Pin_2*%
%TO.N,GND*%
X137165000Y-83000000D03*
%TD*%
D22*
%TO.P,R24,1*%
%TO.N,Net-(U5B--)*%
X139375000Y-72800000D03*
%TO.P,R24,2*%
%TO.N,Net-(R22-Pad1)*%
X141025000Y-72800000D03*
%TD*%
D28*
%TO.P,C55,1*%
%TO.N,Net-(C32-Pad1)*%
X141750000Y-69350000D03*
%TO.P,C55,2*%
%TO.N,Net-(U5B--)*%
X141750000Y-71250000D03*
%TD*%
D39*
%TO.P,T1,10*%
%TO.N,Net-(C25-Pad2)*%
X78750000Y-42450000D03*
%TO.P,T1,9*%
%TO.N,GND*%
X85416667Y-42450000D03*
%TO.P,T1,7*%
X92083333Y-42450000D03*
%TO.P,T1,6*%
%TO.N,Net-(D1-Pad2)*%
X98750000Y-42450000D03*
%TO.P,T1,5*%
%TO.N,Net-(F1-Pad2)*%
X98750000Y-62450000D03*
%TO.P,T1,1*%
%TO.N,NEUT*%
X78750000Y-62450000D03*
%TD*%
D23*
%TO.P,C22,1*%
%TO.N,GND*%
X136275000Y-67300000D03*
%TO.P,C22,2*%
%TO.N,Net-(C22-Pad2)*%
X137825000Y-67300000D03*
%TD*%
D17*
%TO.P,R18,1*%
%TO.N,GND*%
X141500000Y-66175000D03*
%TO.P,R18,2*%
%TO.N,Net-(C24-Pad1)*%
X141500000Y-67825000D03*
%TD*%
D15*
%TO.P,R13,1*%
%TO.N,Net-(U1A--)*%
X156000000Y-52110000D03*
%TO.P,R13,2*%
%TO.N,Net-(R13-Pad2)*%
X156000000Y-50460000D03*
%TD*%
D40*
%TO.P,D6,1,K*%
%TO.N,-15V*%
X135175000Y-38050000D03*
%TO.P,D6,2,A*%
%TO.N,Net-(D1--)*%
X133075000Y-38050000D03*
%TD*%
D28*
%TO.P,C32,1*%
%TO.N,Net-(C32-Pad1)*%
X143800000Y-69350000D03*
%TO.P,C32,2*%
%TO.N,Net-(U5B--)*%
X143800000Y-71250000D03*
%TD*%
D27*
%TO.P,C90,1*%
%TO.N,Net-(C73-Pad1)*%
X124750000Y-78956667D03*
%TO.P,C90,2*%
%TO.N,GND*%
X123200000Y-78956667D03*
%TD*%
D21*
%TO.P,C29,1*%
%TO.N,Net-(C11-Pad2)*%
X160650000Y-58375000D03*
%TO.P,C29,2*%
%TO.N,Net-(C21-Pad2)*%
X162550000Y-58375000D03*
%TD*%
D14*
%TO.P,J1,1,Pin_1*%
%TO.N,/Left/IN*%
X166200000Y-55660000D03*
D13*
%TO.P,J1,2,Pin_2*%
%TO.N,GND*%
X166200000Y-58200000D03*
%TD*%
D30*
%TO.P,R3,1*%
%TO.N,/Right/IN*%
X128375000Y-78000000D03*
%TO.P,R3,2*%
%TO.N,GND*%
X126725000Y-78000000D03*
%TD*%
D26*
%TO.P,C36,1*%
%TO.N,Net-(C10-Pad2)*%
X130010000Y-69650000D03*
%TO.P,C36,2*%
%TO.N,Net-(C17-Pad2)*%
X130010000Y-67750000D03*
%TD*%
D28*
%TO.P,C40,1*%
%TO.N,Net-(U1B-+)*%
X155700000Y-71335000D03*
%TO.P,C40,2*%
%TO.N,Net-(C39-Pad1)*%
X155700000Y-73235000D03*
%TD*%
D22*
%TO.P,R21,1*%
%TO.N,Net-(C74-Pad1)*%
X154438333Y-56635000D03*
%TO.P,R21,2*%
%TO.N,Net-(U1A--)*%
X156088333Y-56635000D03*
%TD*%
D21*
%TO.P,C49,1*%
%TO.N,/Right/IN*%
X128400000Y-74100000D03*
%TO.P,C49,2*%
%TO.N,Net-(U5A-+)*%
X130300000Y-74100000D03*
%TD*%
D16*
%TO.P,C41,1*%
%TO.N,Net-(C41-Pad1)*%
X160950000Y-74185000D03*
%TO.P,C41,2*%
%TO.N,Net-(U1B--)*%
X159050000Y-74185000D03*
%TD*%
D28*
%TO.P,C57,1*%
%TO.N,Net-(C32-Pad1)*%
X139700000Y-69350000D03*
%TO.P,C57,2*%
%TO.N,Net-(U5B--)*%
X139700000Y-71250000D03*
%TD*%
D15*
%TO.P,R20,1*%
%TO.N,Net-(C73-Pad1)*%
X126250000Y-75861667D03*
%TO.P,R20,2*%
%TO.N,Net-(U5A--)*%
X126250000Y-74211667D03*
%TD*%
D17*
%TO.P,R25,1*%
%TO.N,Net-(R25-Pad1)*%
X157500000Y-72785000D03*
%TO.P,R25,2*%
%TO.N,Net-(C39-Pad1)*%
X157500000Y-74435000D03*
%TD*%
%TO.P,R4,1*%
%TO.N,Net-(U5A-+)*%
X130350000Y-77875000D03*
%TO.P,R4,2*%
%TO.N,GND*%
X130350000Y-79525000D03*
%TD*%
D22*
%TO.P,R8,1*%
%TO.N,Net-(R6-Pad2)*%
X120175000Y-66200000D03*
%TO.P,R8,2*%
%TO.N,Net-(C17-Pad2)*%
X121825000Y-66200000D03*
%TD*%
D25*
%TO.P,C31,1*%
%TO.N,GND*%
X163000000Y-66660000D03*
%TO.P,C31,2*%
%TO.N,Net-(C31-Pad2)*%
X163000000Y-68210000D03*
%TD*%
D20*
%TO.P,C10,1*%
%TO.N,Net-(U5A--)*%
X124725000Y-72775000D03*
%TO.P,C10,2*%
%TO.N,Net-(C10-Pad2)*%
X124725000Y-71225000D03*
%TD*%
D25*
%TO.P,C82,1*%
%TO.N,Net-(C74-Pad1)*%
X151325000Y-50485000D03*
%TO.P,C82,2*%
%TO.N,GND*%
X151325000Y-52035000D03*
%TD*%
D23*
%TO.P,C81,1*%
%TO.N,Net-(C73-Pad1)*%
X120100000Y-78975000D03*
%TO.P,C81,2*%
%TO.N,GND*%
X121650000Y-78975000D03*
%TD*%
D22*
%TO.P,R31,1*%
%TO.N,GND*%
X159350000Y-77585000D03*
%TO.P,R31,2*%
%TO.N,Net-(C41-Pad1)*%
X161000000Y-77585000D03*
%TD*%
D30*
%TO.P,R23,1*%
%TO.N,GND*%
X164125000Y-71885000D03*
%TO.P,R23,2*%
%TO.N,Net-(C33-Pad1)*%
X162475000Y-71885000D03*
%TD*%
D25*
%TO.P,C35,1*%
%TO.N,-15V*%
X163000000Y-63685000D03*
%TO.P,C35,2*%
%TO.N,+15V*%
X163000000Y-65235000D03*
%TD*%
D29*
%TO.P,C26,1*%
%TO.N,GND*%
X115700000Y-38500000D03*
%TO.P,C26,2*%
%TO.N,Net-(D1--)*%
X115700000Y-45900000D03*
%TD*%
D22*
%TO.P,R15,1*%
%TO.N,Net-(R13-Pad2)*%
X157450000Y-50535000D03*
%TO.P,R15,2*%
%TO.N,Net-(C11-Pad2)*%
X159100000Y-50535000D03*
%TD*%
D30*
%TO.P,R35,1*%
%TO.N,Net-(D5-A)*%
X151050000Y-38900000D03*
%TO.P,R35,2*%
%TO.N,+15V*%
X149400000Y-38900000D03*
%TD*%
D16*
%TO.P,C56,1*%
%TO.N,Net-(C41-Pad1)*%
X160950000Y-72135000D03*
%TO.P,C56,2*%
%TO.N,Net-(U1B--)*%
X159050000Y-72135000D03*
%TD*%
D22*
%TO.P,R22,1*%
%TO.N,Net-(R22-Pad1)*%
X142400000Y-72800000D03*
%TO.P,R22,2*%
%TO.N,Net-(C28-Pad1)*%
X144050000Y-72800000D03*
%TD*%
D27*
%TO.P,C89,1*%
%TO.N,Net-(C73-Pad1)*%
X124750000Y-80513334D03*
%TO.P,C89,2*%
%TO.N,GND*%
X123200000Y-80513334D03*
%TD*%
D25*
%TO.P,C80,1*%
%TO.N,Net-(C74-Pad1)*%
X152881666Y-50485000D03*
%TO.P,C80,2*%
%TO.N,GND*%
X152881666Y-52035000D03*
%TD*%
D15*
%TO.P,R1,1*%
%TO.N,/Left/IN*%
X152300000Y-58760000D03*
%TO.P,R1,2*%
%TO.N,GND*%
X152300000Y-57110000D03*
%TD*%
D26*
%TO.P,C24,1*%
%TO.N,Net-(C24-Pad1)*%
X139700000Y-67750000D03*
%TO.P,C24,2*%
%TO.N,Net-(C22-Pad2)*%
X139700000Y-65850000D03*
%TD*%
D30*
%TO.P,R34,1*%
%TO.N,Net-(D5-A)*%
X151050000Y-40507500D03*
%TO.P,R34,2*%
%TO.N,+15V*%
X149400000Y-40507500D03*
%TD*%
D23*
%TO.P,C34,1*%
%TO.N,-15V*%
X133300000Y-67300000D03*
%TO.P,C34,2*%
%TO.N,+15V*%
X134850000Y-67300000D03*
%TD*%
D22*
%TO.P,R7,1*%
%TO.N,Net-(C11-Pad2)*%
X160775000Y-50525000D03*
%TO.P,R7,2*%
%TO.N,Net-(R7-Pad2)*%
X162425000Y-50525000D03*
%TD*%
D41*
%TO.P,U3,1,VI*%
%TO.N,Net-(D1-+)*%
X133400000Y-47692500D03*
D42*
%TO.P,U3,2,GND*%
%TO.N,GND*%
X138025000Y-48447500D03*
X138025000Y-51497500D03*
D43*
X139700000Y-49972500D03*
D42*
X141375000Y-48447500D03*
X141375000Y-51497500D03*
D41*
%TO.P,U3,3,VO*%
%TO.N,+15V*%
X133400000Y-52252500D03*
%TD*%
D21*
%TO.P,C53,1*%
%TO.N,/Right/IN*%
X128400000Y-72100000D03*
%TO.P,C53,2*%
%TO.N,Net-(U5A-+)*%
X130300000Y-72100000D03*
%TD*%
D26*
%TO.P,C18,1*%
%TO.N,Net-(C10-Pad2)*%
X123950000Y-69650000D03*
%TO.P,C18,2*%
%TO.N,Net-(C17-Pad2)*%
X123950000Y-67750000D03*
%TD*%
D44*
%TO.N,GND*%
X139778000Y-43727000D03*
%TO.N,Net-(C39-Pad1)*%
X162384000Y-76493000D03*
X157939000Y-75350000D03*
%TO.N,GND*%
X162130000Y-66333000D03*
X165051000Y-71921000D03*
X159336000Y-78652000D03*
X127078000Y-58840000D03*
X122760000Y-58840000D03*
X117680000Y-58840000D03*
X113616000Y-58840000D03*
X126844000Y-38500000D03*
X123014000Y-38520000D03*
X117680000Y-38520000D03*
X113870000Y-38520000D03*
X141302000Y-53633000D03*
X135714000Y-49950000D03*
%TO.N,+15V*%
X147100000Y-47537000D03*
X148541000Y-47537000D03*
%TO.N,GND*%
X137238000Y-37504000D03*
X146255000Y-43346000D03*
X144223000Y-43346000D03*
X142064000Y-43473000D03*
X141429000Y-44870000D03*
X137365000Y-57316000D03*
X135333000Y-57570000D03*
X133174000Y-57443000D03*
X131015000Y-57570000D03*
%TO.N,/Left/IN*%
X157177000Y-57824000D03*
%TO.N,GND*%
X153367000Y-69762000D03*
X148160000Y-53252000D03*
X148795000Y-54268000D03*
X153367000Y-57062000D03*
X149811000Y-60745000D03*
X146382000Y-71921000D03*
X139397000Y-77001000D03*
X130380000Y-80557000D03*
X126824000Y-80684000D03*
X122760000Y-82589000D03*
X123268000Y-81700000D03*
X142699000Y-65698000D03*
X136984000Y-68111000D03*
%TO.N,-15V*%
X140705000Y-63920000D03*
X139181000Y-63920000D03*
%TO.N,+15V*%
X135600000Y-68800000D03*
X140000000Y-64700000D03*
%TO.N,Net-(C28-Pad1)*%
X145112000Y-72810000D03*
X146128000Y-68238000D03*
%TD*%
D45*
%TO.N,+15V*%
X141261876Y-55030000D02*
X140826124Y-55030000D01*
X140826124Y-55030000D02*
X140000000Y-55030000D01*
X143588000Y-52744000D02*
X143588000Y-53633000D01*
X143588000Y-52268124D02*
X143588000Y-52703876D01*
X147100000Y-48756124D02*
X143896124Y-51960000D01*
X143896124Y-51960000D02*
X143588000Y-52268124D01*
X143588000Y-52703876D02*
X143588000Y-52744000D01*
X143588000Y-53633000D02*
X142191000Y-55030000D01*
X142191000Y-55030000D02*
X141261876Y-55030000D01*
X147100000Y-47537000D02*
X147100000Y-48756124D01*
D46*
%TO.N,-15V*%
X140601000Y-63816000D02*
X140705000Y-63920000D01*
X140601000Y-55999000D02*
X140601000Y-63816000D01*
X141044000Y-55556000D02*
X140601000Y-55999000D01*
X142408876Y-55556000D02*
X141044000Y-55556000D01*
X144114000Y-53850876D02*
X142408876Y-55556000D01*
X144114000Y-52486000D02*
X144114000Y-53850876D01*
X147800000Y-48800000D02*
X144114000Y-52486000D01*
X147801000Y-47827364D02*
X147800000Y-47828364D01*
X147801000Y-47246636D02*
X147801000Y-47827364D01*
X147800000Y-47245636D02*
X147801000Y-47246636D01*
X147800000Y-40500000D02*
X147800000Y-47245636D01*
X147800000Y-47828364D02*
X147800000Y-48800000D01*
X146314700Y-40500000D02*
X147800000Y-40500000D01*
%TO.N,GND*%
X139700000Y-43805000D02*
X139778000Y-43727000D01*
X139700000Y-44905000D02*
X139700000Y-43805000D01*
D47*
%TO.N,Net-(C39-Pad1)*%
X162800000Y-76331000D02*
X162800000Y-75335000D01*
X162638000Y-76493000D02*
X162800000Y-76331000D01*
X162384000Y-76493000D02*
X162638000Y-76493000D01*
X157500000Y-74911000D02*
X157939000Y-75350000D01*
X157500000Y-74435000D02*
X157500000Y-74911000D01*
%TO.N,Net-(C28-Pad1)*%
X146128000Y-68238000D02*
X145390000Y-67500000D01*
X145390000Y-67500000D02*
X144950000Y-67500000D01*
D45*
%TO.N,GND*%
X145620000Y-71159000D02*
X145620000Y-71082500D01*
X146382000Y-71921000D02*
X145620000Y-71159000D01*
X145620000Y-71082500D02*
X145670500Y-71032000D01*
%TO.N,/OUTR*%
X144185000Y-77420000D02*
X144185000Y-83100000D01*
X147271000Y-74334000D02*
X144185000Y-77420000D01*
X147271000Y-71032000D02*
X147271000Y-74334000D01*
D46*
%TO.N,-15V*%
X157495000Y-64809000D02*
X158447000Y-64809000D01*
X157495000Y-62810000D02*
X157495000Y-64809000D01*
X147652000Y-64809000D02*
X158447000Y-64809000D01*
X146763000Y-63920000D02*
X147652000Y-64809000D01*
X144200000Y-63920000D02*
X146763000Y-63920000D01*
X144200000Y-63920000D02*
X140705000Y-63920000D01*
X134063000Y-72637000D02*
X134063000Y-68063000D01*
X133895000Y-72805000D02*
X134063000Y-72637000D01*
X132425000Y-72805000D02*
X133895000Y-72805000D01*
X134063000Y-68063000D02*
X133300000Y-67300000D01*
X134063000Y-66537000D02*
X133300000Y-67300000D01*
X134063000Y-65190000D02*
X134063000Y-66537000D01*
X135333000Y-63920000D02*
X134063000Y-65190000D01*
X139181000Y-63920000D02*
X135333000Y-63920000D01*
%TO.N,+15V*%
X161305000Y-65508000D02*
X161305000Y-67760000D01*
X161241000Y-65444000D02*
X161305000Y-65508000D01*
X161241000Y-65444000D02*
X162791000Y-65444000D01*
X147144000Y-65444000D02*
X161241000Y-65444000D01*
X162791000Y-65444000D02*
X163000000Y-65235000D01*
X146400000Y-64700000D02*
X147144000Y-65444000D01*
X140000000Y-64700000D02*
X146400000Y-64700000D01*
%TO.N,-15V*%
X161591000Y-64809000D02*
X162715000Y-63685000D01*
X162715000Y-63685000D02*
X163000000Y-63685000D01*
X158447000Y-64809000D02*
X161591000Y-64809000D01*
D45*
%TO.N,GND*%
X162457000Y-66660000D02*
X162130000Y-66333000D01*
X163000000Y-66660000D02*
X162457000Y-66660000D01*
X164161000Y-71921000D02*
X164125000Y-71885000D01*
X165051000Y-71921000D02*
X164161000Y-71921000D01*
X159350000Y-78638000D02*
X159336000Y-78652000D01*
X159350000Y-77585000D02*
X159350000Y-78638000D01*
D48*
X127038000Y-58800000D02*
X127078000Y-58840000D01*
X125000000Y-58800000D02*
X127038000Y-58800000D01*
X122800000Y-58800000D02*
X122760000Y-58840000D01*
X125000000Y-58800000D02*
X122800000Y-58800000D01*
X117640000Y-58800000D02*
X117680000Y-58840000D01*
X115700000Y-58800000D02*
X117640000Y-58800000D01*
X113656000Y-58800000D02*
X113616000Y-58840000D01*
X115700000Y-58800000D02*
X113656000Y-58800000D01*
D46*
%TO.N,Net-(D1--)*%
X127064000Y-45900000D02*
X125000000Y-45900000D01*
X128814000Y-44150000D02*
X127064000Y-45900000D01*
X131725000Y-44150000D02*
X128814000Y-44150000D01*
D48*
%TO.N,GND*%
X126844000Y-38500000D02*
X125000000Y-38500000D01*
X123034000Y-38500000D02*
X123014000Y-38520000D01*
X125000000Y-38500000D02*
X123034000Y-38500000D01*
X117660000Y-38500000D02*
X117680000Y-38520000D01*
X115700000Y-38500000D02*
X117660000Y-38500000D01*
X113890000Y-38500000D02*
X113870000Y-38520000D01*
X115700000Y-38500000D02*
X113890000Y-38500000D01*
%TO.N,Net-(D1-Pad2)*%
X102687000Y-42450000D02*
X106123000Y-45886000D01*
X98750000Y-42450000D02*
X102687000Y-42450000D01*
X106123000Y-45886000D02*
X106123000Y-46872000D01*
X106123000Y-51284000D02*
X106377000Y-51538000D01*
X106123000Y-46872000D02*
X106123000Y-51284000D01*
X106123000Y-49170000D02*
X103825000Y-49170000D01*
X106123000Y-46872000D02*
X106123000Y-49170000D01*
%TO.N,Net-(C25-Pad1)*%
X105998000Y-53567000D02*
X106377000Y-53188000D01*
X104345000Y-53567000D02*
X105998000Y-53567000D01*
%TO.N,Net-(C25-Pad2)*%
X101551000Y-50585000D02*
X101551000Y-46630000D01*
X102633000Y-51667000D02*
X101551000Y-50585000D01*
X82930000Y-46630000D02*
X101551000Y-46630000D01*
X104345000Y-51667000D02*
X102633000Y-51667000D01*
%TO.N,Net-(D1-+)*%
X115700000Y-51400000D02*
X125000000Y-51400000D01*
%TO.N,Net-(D1--)*%
X115700000Y-45900000D02*
X125000000Y-45900000D01*
X114970000Y-46630000D02*
X115700000Y-45900000D01*
X109975000Y-46630000D02*
X114970000Y-46630000D01*
%TO.N,Net-(C25-Pad2)*%
X101551000Y-46630000D02*
X103825000Y-46630000D01*
X78750000Y-42450000D02*
X82930000Y-46630000D01*
%TO.N,GND*%
X141375000Y-53560000D02*
X141302000Y-53633000D01*
X141375000Y-51497500D02*
X141375000Y-53560000D01*
X135736500Y-49972500D02*
X135714000Y-49950000D01*
X139700000Y-49972500D02*
X135736500Y-49972500D01*
D45*
%TO.N,+15V*%
X149400000Y-46932000D02*
X149400000Y-42115000D01*
X148541000Y-47537000D02*
X148795000Y-47537000D01*
X148795000Y-47537000D02*
X149400000Y-46932000D01*
D46*
X140000000Y-55030000D02*
X140000000Y-64700000D01*
X140000000Y-54700000D02*
X140000000Y-55030000D01*
D45*
X149400000Y-38900000D02*
X149400000Y-42115000D01*
%TO.N,-15V*%
X146314700Y-38333300D02*
X146314700Y-40500000D01*
X147652000Y-36996000D02*
X146314700Y-38333300D01*
X154002000Y-36996000D02*
X147652000Y-36996000D01*
X156375000Y-39369000D02*
X154002000Y-36996000D01*
X156375000Y-40600000D02*
X156375000Y-39369000D01*
D46*
%TO.N,Net-(D5-A)*%
X153742500Y-40507500D02*
X153835000Y-40600000D01*
X151050000Y-40507500D02*
X153742500Y-40507500D01*
X151050000Y-38900000D02*
X151050000Y-42115000D01*
%TO.N,GND*%
X136725000Y-38017000D02*
X137238000Y-37504000D01*
X136725000Y-38050000D02*
X136725000Y-38017000D01*
X146314700Y-43286300D02*
X146255000Y-43346000D01*
X146314700Y-42400000D02*
X146314700Y-43286300D01*
X144219850Y-43342850D02*
X144223000Y-43346000D01*
X144219850Y-42400000D02*
X144219850Y-43342850D01*
X142125000Y-43412000D02*
X142064000Y-43473000D01*
X142125000Y-42400000D02*
X142125000Y-43412000D01*
X141394000Y-44905000D02*
X141429000Y-44870000D01*
X139700000Y-44905000D02*
X141394000Y-44905000D01*
D45*
X137400000Y-57281000D02*
X137365000Y-57316000D01*
D46*
X137400000Y-56400000D02*
X137400000Y-57281000D01*
D45*
X135300000Y-57537000D02*
X135333000Y-57570000D01*
D46*
X135300000Y-56350000D02*
X135300000Y-57537000D01*
D45*
X133200000Y-57417000D02*
X133174000Y-57443000D01*
D46*
X133200000Y-56350000D02*
X133200000Y-57417000D01*
D45*
X131075000Y-57510000D02*
X131015000Y-57570000D01*
D46*
X131075000Y-56350000D02*
X131075000Y-57510000D01*
D45*
%TO.N,/Left/IN*%
X157177000Y-58785000D02*
X157177000Y-57824000D01*
X156200000Y-58785000D02*
X157177000Y-58785000D01*
%TO.N,GND*%
X153390000Y-69785000D02*
X153367000Y-69762000D01*
X154375000Y-69785000D02*
X153390000Y-69785000D01*
D47*
X148211666Y-53200334D02*
X148160000Y-53252000D01*
X148211666Y-52035000D02*
X148211666Y-53200334D01*
X149478000Y-53585000D02*
X148795000Y-54268000D01*
X149786666Y-53585000D02*
X149478000Y-53585000D01*
X153319000Y-57110000D02*
X153367000Y-57062000D01*
X152300000Y-57110000D02*
X153319000Y-57110000D01*
D45*
X149821000Y-60735000D02*
X149811000Y-60745000D01*
X150775000Y-60735000D02*
X149821000Y-60735000D01*
D47*
%TO.N,Net-(C32-Pad1)*%
X147207000Y-69382000D02*
X147208000Y-69381000D01*
X145670500Y-69382000D02*
X147207000Y-69382000D01*
X145638500Y-69350000D02*
X145670500Y-69382000D01*
X139700000Y-69350000D02*
X145638500Y-69350000D01*
D45*
%TO.N,GND*%
X139400000Y-76998000D02*
X139397000Y-77001000D01*
X139400000Y-75925000D02*
X139400000Y-76998000D01*
X130350000Y-80527000D02*
X130380000Y-80557000D01*
X130350000Y-79525000D02*
X130350000Y-80527000D01*
D47*
X126775000Y-80635000D02*
X126824000Y-80684000D01*
X126775000Y-79600000D02*
X126775000Y-80635000D01*
X122259334Y-82088334D02*
X122760000Y-82589000D01*
X121650000Y-82088334D02*
X122259334Y-82088334D01*
X123200000Y-81632000D02*
X123268000Y-81700000D01*
X123200000Y-80513334D02*
X123200000Y-81632000D01*
D45*
X142222000Y-66175000D02*
X142699000Y-65698000D01*
X141500000Y-66175000D02*
X142222000Y-66175000D01*
X136275000Y-67402000D02*
X136984000Y-68111000D01*
X136275000Y-67300000D02*
X136275000Y-67402000D01*
D46*
%TO.N,+15V*%
X139600000Y-54300000D02*
X140000000Y-54700000D01*
X135795000Y-68995000D02*
X135600000Y-68800000D01*
X137375000Y-68995000D02*
X135795000Y-68995000D01*
X137400000Y-54300000D02*
X139600000Y-54300000D01*
D47*
%TO.N,/OUTL*%
X157015000Y-75985000D02*
X159375000Y-75985000D01*
X155100000Y-77900000D02*
X157015000Y-75985000D01*
X155100000Y-80300000D02*
X155100000Y-77900000D01*
X152300000Y-83100000D02*
X155100000Y-80300000D01*
X146725000Y-83100000D02*
X152300000Y-83100000D01*
%TO.N,Net-(U1A-+)*%
X152475000Y-60685000D02*
X152425000Y-60735000D01*
X158200000Y-60685000D02*
X152475000Y-60685000D01*
X158765000Y-62150000D02*
X158765000Y-62810000D01*
X158200000Y-61585000D02*
X158765000Y-62150000D01*
X158200000Y-60685000D02*
X158200000Y-61585000D01*
%TO.N,Net-(U1B--)*%
X158725000Y-69760000D02*
X159050000Y-70085000D01*
X158765000Y-67760000D02*
X158765000Y-69800000D01*
X157500000Y-69760000D02*
X158725000Y-69760000D01*
X160035000Y-67760000D02*
X158765000Y-67760000D01*
X159050000Y-70085000D02*
X159050000Y-74185000D01*
X158765000Y-69800000D02*
X159050000Y-70085000D01*
%TO.N,Net-(U1B-+)*%
X157495000Y-67760000D02*
X156725000Y-67760000D01*
X156725000Y-67760000D02*
X156025000Y-68460000D01*
X156025000Y-69785000D02*
X156025000Y-71010000D01*
X156025000Y-68460000D02*
X156025000Y-69785000D01*
X156025000Y-71010000D02*
X155700000Y-71335000D01*
%TO.N,Net-(U1A--)*%
X159200000Y-57785000D02*
X158675000Y-57785000D01*
X157525000Y-52060000D02*
X157525000Y-56635000D01*
X159600000Y-61185000D02*
X159600000Y-58185000D01*
X159600000Y-58185000D02*
X159200000Y-57785000D01*
X158675000Y-57785000D02*
X157525000Y-56635000D01*
X160100000Y-62745000D02*
X160100000Y-61685000D01*
X157475000Y-52110000D02*
X157525000Y-52060000D01*
X160035000Y-62810000D02*
X160100000Y-62745000D01*
X160100000Y-61685000D02*
X159600000Y-61185000D01*
X156088333Y-56635000D02*
X157525000Y-56635000D01*
X156000000Y-52110000D02*
X157475000Y-52110000D01*
%TO.N,/Left/IN*%
X158200000Y-58785000D02*
X150775000Y-58785000D01*
X150775000Y-58785000D02*
X150700000Y-58710000D01*
%TO.N,Net-(R25-Pad1)*%
X157500000Y-71410000D02*
X157500000Y-72785000D01*
%TO.N,Net-(R17-Pad2)*%
X164500000Y-65285000D02*
X164500000Y-66610000D01*
%TO.N,Net-(R13-Pad2)*%
X157450000Y-50535000D02*
X156075000Y-50535000D01*
X156075000Y-50535000D02*
X156000000Y-50460000D01*
%TO.N,Net-(R7-Pad2)*%
X162460000Y-50560000D02*
X162425000Y-50525000D01*
X164100000Y-50560000D02*
X162460000Y-50560000D01*
%TO.N,Net-(C74-Pad1)*%
X154438333Y-55153333D02*
X154456666Y-55135000D01*
X154438333Y-50485000D02*
X148211666Y-50485000D01*
X146900000Y-51385000D02*
X146900000Y-53685000D01*
X148350000Y-55135000D02*
X156013333Y-55135000D01*
X148211666Y-50485000D02*
X147800000Y-50485000D01*
X147800000Y-50485000D02*
X146900000Y-51385000D01*
X154438333Y-56635000D02*
X154438333Y-55153333D01*
X146900000Y-53685000D02*
X148350000Y-55135000D01*
%TO.N,Net-(C41-Pad1)*%
X160950000Y-70085000D02*
X160950000Y-77535000D01*
X160950000Y-77535000D02*
X161000000Y-77585000D01*
%TO.N,Net-(C39-Pad1)*%
X157500000Y-74435000D02*
X156150000Y-74435000D01*
X155700000Y-73985000D02*
X155700000Y-73235000D01*
X156150000Y-74435000D02*
X155700000Y-73985000D01*
%TO.N,Net-(C33-Pad1)*%
X162550000Y-70085000D02*
X162550000Y-71810000D01*
X162550000Y-71810000D02*
X162475000Y-71885000D01*
X162475000Y-73110000D02*
X162800000Y-73435000D01*
X162475000Y-71885000D02*
X162475000Y-73110000D01*
%TO.N,Net-(C31-Pad2)*%
X164500000Y-68260000D02*
X164500000Y-70035000D01*
X164500000Y-68260000D02*
X163050000Y-68260000D01*
X163050000Y-68260000D02*
X163000000Y-68210000D01*
X164500000Y-70035000D02*
X164450000Y-70085000D01*
%TO.N,Net-(C21-Pad2)*%
X164500000Y-61285000D02*
X163610000Y-60395000D01*
X163610000Y-60395000D02*
X162550000Y-60395000D01*
X162550000Y-62235000D02*
X161975000Y-62810000D01*
X164100000Y-52210000D02*
X162655000Y-52210000D01*
X162655000Y-52210000D02*
X162550000Y-52315000D01*
X161975000Y-62810000D02*
X161305000Y-62810000D01*
X162550000Y-52315000D02*
X162550000Y-60395000D01*
X162550000Y-60395000D02*
X162550000Y-62235000D01*
X164500000Y-63635000D02*
X164500000Y-61285000D01*
%TO.N,Net-(C11-Pad2)*%
X160775000Y-60270000D02*
X160650000Y-60395000D01*
X159355000Y-56355000D02*
X159075000Y-56635000D01*
X159100000Y-50535000D02*
X160765000Y-50535000D01*
X160775000Y-50525000D02*
X160775000Y-60270000D01*
X160650000Y-56355000D02*
X159355000Y-56355000D01*
X159100000Y-56610000D02*
X159075000Y-56635000D01*
X159100000Y-54285000D02*
X159150000Y-54335000D01*
X160765000Y-50535000D02*
X160775000Y-50525000D01*
X160395000Y-52060000D02*
X160650000Y-52315000D01*
X159100000Y-54285000D02*
X159100000Y-56610000D01*
X159100000Y-50535000D02*
X159100000Y-54285000D01*
X159075000Y-52060000D02*
X160395000Y-52060000D01*
X159150000Y-54335000D02*
X160650000Y-54335000D01*
%TO.N,GND*%
X151325000Y-52035000D02*
X151325000Y-53566667D01*
X149768333Y-53566667D02*
X149786666Y-53585000D01*
X152300000Y-57110000D02*
X150750000Y-57110000D01*
X156013333Y-53585000D02*
X149786666Y-53585000D01*
X150750000Y-57110000D02*
X150700000Y-57160000D01*
X148211666Y-52035000D02*
X154438333Y-52035000D01*
X152881666Y-52035000D02*
X152881666Y-53566666D01*
X152881666Y-53566666D02*
X152900000Y-53585000D01*
X154438333Y-52035000D02*
X154438333Y-53566667D01*
X154438333Y-53566667D02*
X154456666Y-53585000D01*
X149768333Y-52035000D02*
X149768333Y-53566667D01*
X151325000Y-53566667D02*
X151343333Y-53585000D01*
X123181667Y-78975000D02*
X123200000Y-78956667D01*
X121650000Y-80531667D02*
X123181667Y-80531667D01*
X123181667Y-75861667D02*
X123200000Y-75843334D01*
X121650000Y-75861667D02*
X123181667Y-75861667D01*
X123181666Y-77418334D02*
X123200000Y-77400000D01*
X121650000Y-77418334D02*
X123181666Y-77418334D01*
X121650000Y-82088334D02*
X121650000Y-75861667D01*
X126725000Y-79550000D02*
X126775000Y-79600000D01*
X123200000Y-74286667D02*
X123200000Y-80513334D01*
X126725000Y-78000000D02*
X126725000Y-79550000D01*
X123181667Y-80531667D02*
X123200000Y-80513334D01*
X121650000Y-78975000D02*
X123181667Y-78975000D01*
%TO.N,Net-(C10-Pad2)*%
X123950000Y-71150000D02*
X123950000Y-69650000D01*
X121675000Y-71225000D02*
X121675000Y-69905000D01*
X120150000Y-71200000D02*
X123900000Y-71200000D01*
X123900000Y-71200000D02*
X126225000Y-71200000D01*
X121675000Y-69905000D02*
X121930000Y-69650000D01*
X120150000Y-69535000D02*
X120140000Y-69525000D01*
X123900000Y-71200000D02*
X123950000Y-71150000D01*
X126225000Y-71200000D02*
X126250000Y-71225000D01*
X125970000Y-69650000D02*
X125970000Y-70945000D01*
X120140000Y-69525000D02*
X129885000Y-69525000D01*
X120150000Y-71200000D02*
X120150000Y-69535000D01*
X125970000Y-70945000D02*
X126250000Y-71225000D01*
X129885000Y-69525000D02*
X130010000Y-69650000D01*
%TO.N,Net-(C17-Pad2)*%
X133250000Y-65800000D02*
X130900000Y-65800000D01*
X130010000Y-67750000D02*
X131850000Y-67750000D01*
X121930000Y-67750000D02*
X130010000Y-67750000D01*
X132425000Y-68325000D02*
X132425000Y-68995000D01*
X121825000Y-67645000D02*
X121930000Y-67750000D01*
X121825000Y-66200000D02*
X121825000Y-67645000D01*
X131850000Y-67750000D02*
X132425000Y-68325000D01*
X130010000Y-66690000D02*
X130010000Y-67750000D01*
X130900000Y-65800000D02*
X130010000Y-66690000D01*
%TO.N,Net-(C22-Pad2)*%
X139650000Y-65800000D02*
X139700000Y-65850000D01*
X137875000Y-67250000D02*
X137825000Y-67300000D01*
X137875000Y-65800000D02*
X137875000Y-67250000D01*
X137875000Y-65800000D02*
X139650000Y-65800000D01*
%TO.N,Net-(C24-Pad1)*%
X141500000Y-67825000D02*
X142725000Y-67825000D01*
X142725000Y-67825000D02*
X143050000Y-67500000D01*
X141425000Y-67750000D02*
X141500000Y-67825000D01*
X139700000Y-67750000D02*
X141425000Y-67750000D01*
D46*
%TO.N,Net-(D1--)*%
X133075000Y-39750000D02*
X131725000Y-41100000D01*
X133075000Y-38050000D02*
X133075000Y-39750000D01*
D47*
%TO.N,Net-(C28-Pad1)*%
X144050000Y-74150000D02*
X143600000Y-74600000D01*
X143600000Y-74600000D02*
X142850000Y-74600000D01*
X144050000Y-72800000D02*
X144050000Y-74150000D01*
D46*
%TO.N,-15V*%
X135474999Y-38050000D02*
X137769999Y-40345000D01*
X139700000Y-40345000D02*
X146159700Y-40345000D01*
X139700000Y-38500000D02*
X139700000Y-40345000D01*
X138825000Y-38050000D02*
X139250000Y-38050000D01*
X135175000Y-38050000D02*
X135474999Y-38050000D01*
X139250000Y-38050000D02*
X139700000Y-38500000D01*
X137769999Y-40345000D02*
X139700000Y-40345000D01*
X146159700Y-40345000D02*
X146314700Y-40500000D01*
%TO.N,+15V*%
X131075000Y-54450000D02*
X135300000Y-54450000D01*
X135450000Y-54300000D02*
X135300000Y-54450000D01*
X130900000Y-49050000D02*
X130900000Y-49752500D01*
X133200000Y-54450000D02*
X133200000Y-52452500D01*
X137400000Y-54300000D02*
X135450000Y-54300000D01*
X130900000Y-49752500D02*
X133400000Y-52252500D01*
X133200000Y-52452500D02*
X133400000Y-52252500D01*
D47*
%TO.N,Net-(C73-Pad1)*%
X123300000Y-83400000D02*
X124750000Y-81950000D01*
X126250000Y-75861667D02*
X124768333Y-75861667D01*
X120100000Y-82500000D02*
X121000000Y-83400000D01*
X120100000Y-82088334D02*
X120100000Y-82500000D01*
X124750000Y-81950000D02*
X124750000Y-74286667D01*
X121000000Y-83400000D02*
X123300000Y-83400000D01*
X120100000Y-75861667D02*
X120100000Y-82088334D01*
X124768333Y-75861667D02*
X124750000Y-75843334D01*
%TO.N,Net-(R6-Pad2)*%
X120175000Y-66200000D02*
X120175000Y-67840000D01*
X120175000Y-67840000D02*
X120140000Y-67875000D01*
%TO.N,Net-(R11-Pad2)*%
X120150000Y-74225000D02*
X120075000Y-74300000D01*
X120150000Y-72850000D02*
X120150000Y-74225000D01*
%TO.N,Net-(R14-Pad2)*%
X134900000Y-65800000D02*
X136225000Y-65800000D01*
%TO.N,Net-(R22-Pad1)*%
X141025000Y-72800000D02*
X142400000Y-72800000D01*
%TO.N,/Right/IN*%
X128325000Y-81225000D02*
X130100000Y-83000000D01*
X128325000Y-79600000D02*
X128325000Y-81225000D01*
X128400000Y-79525000D02*
X128325000Y-79600000D01*
X130100000Y-83000000D02*
X134625000Y-83000000D01*
X128400000Y-72100000D02*
X128400000Y-79525000D01*
%TO.N,Net-(U5A--)*%
X121725000Y-74300000D02*
X121725000Y-72825000D01*
X126250000Y-74211667D02*
X126250000Y-72775000D01*
X131300000Y-70200000D02*
X130800000Y-70700000D01*
X132425000Y-70265000D02*
X132360000Y-70200000D01*
X121725000Y-72825000D02*
X121675000Y-72775000D01*
X132360000Y-70200000D02*
X131300000Y-70200000D01*
X127400000Y-71625000D02*
X126250000Y-72775000D01*
X127800000Y-70700000D02*
X127400000Y-71100000D01*
X130800000Y-70700000D02*
X127800000Y-70700000D01*
X121675000Y-72775000D02*
X126250000Y-72775000D01*
X127400000Y-71100000D02*
X127400000Y-71625000D01*
%TO.N,Net-(U5B-+)*%
X140625000Y-74275000D02*
X140950000Y-74600000D01*
X138075000Y-74275000D02*
X139400000Y-74275000D01*
X139400000Y-74275000D02*
X140625000Y-74275000D01*
X137375000Y-73575000D02*
X138075000Y-74275000D01*
X137375000Y-72805000D02*
X137375000Y-73575000D01*
%TO.N,Net-(U5B--)*%
X139415000Y-71535000D02*
X139700000Y-71250000D01*
X139700000Y-71250000D02*
X143800000Y-71250000D01*
X137375000Y-70265000D02*
X137375000Y-71535000D01*
X139375000Y-72800000D02*
X139375000Y-71575000D01*
X137375000Y-71535000D02*
X139415000Y-71535000D01*
X139375000Y-71575000D02*
X139700000Y-71250000D01*
%TO.N,Net-(U5A-+)*%
X130300000Y-72100000D02*
X131200000Y-72100000D01*
X131200000Y-72100000D02*
X131765000Y-71535000D01*
X131765000Y-71535000D02*
X132425000Y-71535000D01*
X130300000Y-72100000D02*
X130300000Y-77825000D01*
X130300000Y-77825000D02*
X130350000Y-77875000D01*
D46*
%TO.N,Net-(D1-+)*%
X133400000Y-47692500D02*
X131642500Y-47692500D01*
X131642500Y-47692500D02*
X130900000Y-46950000D01*
X128900000Y-48000000D02*
X128900000Y-50000000D01*
X129950000Y-46950000D02*
X128900000Y-48000000D01*
X127500000Y-51400000D02*
X125000000Y-51400000D01*
X128900000Y-50000000D02*
X127500000Y-51400000D01*
X130900000Y-46950000D02*
X129950000Y-46950000D01*
D48*
X111383000Y-51400000D02*
X115700000Y-51400000D01*
X109975000Y-49992000D02*
X111383000Y-51400000D01*
X109975000Y-49170000D02*
X109975000Y-49992000D01*
D46*
%TO.N,+15V*%
X135600000Y-68800000D02*
X135600000Y-68050000D01*
X135600000Y-68050000D02*
X134850000Y-67300000D01*
D47*
%TO.N,Net-(C28-Pad1)*%
X145102000Y-72800000D02*
X145112000Y-72810000D01*
X144050000Y-72800000D02*
X145102000Y-72800000D01*
%TD*%
M02*
